<svg width="130" height="21" viewBox="0 0 130 21" fill="none" xmlns="http://www.w3.org/2000/svg">
<path d="M0 5.73874H8.54847V21H15.537V5.73874H24.0855V0H0V5.73874Z" fill="black"/>
<path d="M26.7549 21H47.7829V15.9234H33.6187V12.7387H44.195V8.00901H33.6187V5.07658H47.7829V0H26.7549V21Z" fill="black"/>
<path d="M51.2216 21H57.6797V8.82883H57.7421L68.5993 21H75.5255V0H69.0673V11.8559H69.0049L58.1789 0H51.2216V21Z" fill="black"/>
<path d="M79.6491 21H100.677V15.9234H86.5128V12.7387H97.0892V8.00901H86.5128V5.07658H100.677V0H79.6491V21Z" fill="black"/>
<path d="M129.231 21L119.84 10.2477L128.981 0H121.213L115.94 6.33784L110.667 0H102.057L111.198 10.5L101.807 21H109.576L115.098 14.3784L120.62 21H129.231Z" fill="black"/>
</svg>
