<svg width="350" height="326" viewBox="0 0 350 326" fill="none" xmlns="http://www.w3.org/2000/svg">
<g filter="url(#filter0_ddd_36_846)">
<rect x="27" y="18" width="296" height="239" rx="10" fill="white"/>
<rect x="27.5" y="18.5" width="295" height="238" rx="9.5" stroke="black" stroke-opacity="0.1"/>
<path d="M43 40C43 36.134 46.134 33 50 33H300C303.866 33 307 36.134 307 40V133C307 136.866 303.866 140 300 140H50C46.134 140 43 136.866 43 133V40Z" fill="black" fill-opacity="0.04"/>
<path d="M53.672 57V55.896H54.812V49.728H53.672V48.624H57.32V49.728H56.168V55.896H57.32V57H53.672ZM62.0619 49.824V57H60.7059V49.824H58.2099V48.624H64.5579V49.824H62.0619ZM65.8797 57V48.624H71.2437V49.824H67.2357V52.152H70.8717V53.352H67.2357V55.8H71.2437V57H65.8797ZM79.4009 50.592H79.3409L78.6809 51.948L76.8449 55.296L75.0089 51.948L74.3489 50.592H74.2889V57H72.9929V48.624H74.6009L76.8449 52.884H76.9169L79.1609 48.624H80.6969V57H79.4009V50.592Z" fill="black" fill-opacity="0.4"/>
<path d="M58.085 78.18C56.755 78.18 55.72 77.73 54.98 76.83C54.24 75.92 53.87 74.585 53.87 72.825C53.87 71.065 54.24 69.715 54.98 68.775C55.72 67.825 56.755 67.35 58.085 67.35C58.965 67.35 59.7 67.55 60.29 67.95C60.89 68.35 61.355 68.915 61.685 69.645L60.665 70.26C60.455 69.72 60.135 69.29 59.705 68.97C59.275 68.64 58.735 68.475 58.085 68.475C57.635 68.475 57.23 68.56 56.87 68.73C56.52 68.9 56.22 69.145 55.97 69.465C55.73 69.775 55.545 70.15 55.415 70.59C55.285 71.02 55.22 71.505 55.22 72.045V73.605C55.22 74.685 55.47 75.53 55.97 76.14C56.47 76.75 57.175 77.055 58.085 77.055C58.755 77.055 59.315 76.885 59.765 76.545C60.215 76.195 60.545 75.735 60.755 75.165L61.76 75.795C61.43 76.535 60.955 77.12 60.335 77.55C59.715 77.97 58.965 78.18 58.085 78.18ZM66.5164 78.18C65.9964 78.18 65.5214 78.085 65.0914 77.895C64.6614 77.705 64.2914 77.435 63.9814 77.085C63.6814 76.725 63.4464 76.3 63.2764 75.81C63.1064 75.31 63.0214 74.75 63.0214 74.13C63.0214 73.52 63.1064 72.965 63.2764 72.465C63.4464 71.965 63.6814 71.54 63.9814 71.19C64.2914 70.83 64.6614 70.555 65.0914 70.365C65.5214 70.175 65.9964 70.08 66.5164 70.08C67.0364 70.08 67.5064 70.175 67.9264 70.365C68.3564 70.555 68.7264 70.83 69.0364 71.19C69.3464 71.54 69.5864 71.965 69.7564 72.465C69.9264 72.965 70.0114 73.52 70.0114 74.13C70.0114 74.75 69.9264 75.31 69.7564 75.81C69.5864 76.3 69.3464 76.725 69.0364 77.085C68.7264 77.435 68.3564 77.705 67.9264 77.895C67.5064 78.085 67.0364 78.18 66.5164 78.18ZM66.5164 77.115C67.1664 77.115 67.6964 76.915 68.1064 76.515C68.5164 76.115 68.7214 75.505 68.7214 74.685V73.575C68.7214 72.755 68.5164 72.145 68.1064 71.745C67.6964 71.345 67.1664 71.145 66.5164 71.145C65.8664 71.145 65.3364 71.345 64.9264 71.745C64.5164 72.145 64.3114 72.755 64.3114 73.575V74.685C64.3114 75.505 64.5164 76.115 64.9264 76.515C65.3364 76.915 65.8664 77.115 66.5164 77.115ZM71.985 78V70.26H73.185V71.52H73.245C73.435 71.08 73.7 70.73 74.04 70.47C74.39 70.21 74.855 70.08 75.435 70.08C76.235 70.08 76.865 70.34 77.325 70.86C77.795 71.37 78.03 72.095 78.03 73.035V78H76.83V73.245C76.83 71.855 76.245 71.16 75.075 71.16C74.835 71.16 74.6 71.19 74.37 71.25C74.15 71.31 73.95 71.4 73.77 71.52C73.59 71.64 73.445 71.795 73.335 71.985C73.235 72.165 73.185 72.38 73.185 72.63V78H71.985ZM82.1032 78L79.3882 70.26H80.5882L81.9382 74.1L82.7782 76.74H82.8532L83.6932 74.1L85.0732 70.26H86.2282L83.4982 78H82.1032ZM90.5688 78.18C90.0388 78.18 89.5588 78.085 89.1288 77.895C88.7088 77.705 88.3438 77.435 88.0338 77.085C87.7338 76.725 87.4988 76.3 87.3288 75.81C87.1688 75.31 87.0888 74.75 87.0888 74.13C87.0888 73.52 87.1688 72.965 87.3288 72.465C87.4988 71.965 87.7338 71.54 88.0338 71.19C88.3438 70.83 88.7088 70.555 89.1288 70.365C89.5588 70.175 90.0388 70.08 90.5688 70.08C91.0888 70.08 91.5538 70.175 91.9638 70.365C92.3738 70.555 92.7238 70.82 93.0138 71.16C93.3038 71.49 93.5238 71.885 93.6738 72.345C93.8338 72.805 93.9138 73.31 93.9138 73.86V74.43H88.3488V74.79C88.3488 75.12 88.3988 75.43 88.4988 75.72C88.6088 76 88.7588 76.245 88.9488 76.455C89.1488 76.665 89.3888 76.83 89.6688 76.95C89.9588 77.07 90.2838 77.13 90.6438 77.13C91.1338 77.13 91.5588 77.015 91.9188 76.785C92.2888 76.555 92.5738 76.225 92.7738 75.795L93.6288 76.41C93.3788 76.94 92.9888 77.37 92.4588 77.7C91.9288 78.02 91.2988 78.18 90.5688 78.18ZM90.5688 71.085C90.2388 71.085 89.9388 71.145 89.6688 71.265C89.3988 71.375 89.1638 71.535 88.9638 71.745C88.7738 71.955 88.6238 72.205 88.5138 72.495C88.4038 72.775 88.3488 73.085 88.3488 73.425V73.53H92.6238V73.365C92.6238 72.675 92.4338 72.125 92.0538 71.715C91.6838 71.295 91.1888 71.085 90.5688 71.085ZM95.8912 78V70.26H97.0912V71.685H97.1662C97.3062 71.315 97.5562 70.985 97.9162 70.695C98.2762 70.405 98.7712 70.26 99.4012 70.26H99.8662V71.46H99.1612C98.5112 71.46 98.0012 71.585 97.6312 71.835C97.2712 72.075 97.0912 72.38 97.0912 72.75V78H95.8912ZM103.724 78.18C103.004 78.18 102.399 78.045 101.909 77.775C101.429 77.495 101.014 77.125 100.664 76.665L101.519 75.975C101.819 76.355 102.154 76.65 102.524 76.86C102.894 77.06 103.324 77.16 103.814 77.16C104.324 77.16 104.719 77.05 104.999 76.83C105.289 76.61 105.434 76.3 105.434 75.9C105.434 75.6 105.334 75.345 105.134 75.135C104.944 74.915 104.594 74.765 104.084 74.685L103.469 74.595C103.109 74.545 102.779 74.47 102.479 74.37C102.179 74.26 101.914 74.12 101.684 73.95C101.464 73.77 101.289 73.55 101.159 73.29C101.039 73.03 100.979 72.72 100.979 72.36C100.979 71.98 101.049 71.65 101.189 71.37C101.329 71.08 101.519 70.84 101.759 70.65C102.009 70.46 102.304 70.32 102.644 70.23C102.984 70.13 103.349 70.08 103.739 70.08C104.369 70.08 104.894 70.19 105.314 70.41C105.744 70.63 106.119 70.935 106.439 71.325L105.644 72.045C105.474 71.805 105.224 71.59 104.894 71.4C104.564 71.2 104.149 71.1 103.649 71.1C103.149 71.1 102.769 71.21 102.509 71.43C102.259 71.64 102.134 71.93 102.134 72.3C102.134 72.68 102.259 72.955 102.509 73.125C102.769 73.295 103.139 73.42 103.619 73.5L104.219 73.59C105.079 73.72 105.689 73.97 106.049 74.34C106.409 74.7 106.589 75.175 106.589 75.765C106.589 76.515 106.334 77.105 105.824 77.535C105.314 77.965 104.614 78.18 103.724 78.18ZM114.334 78C113.884 78 113.559 77.88 113.359 77.64C113.169 77.4 113.049 77.1 112.999 76.74H112.924C112.754 77.22 112.474 77.58 112.084 77.82C111.694 78.06 111.229 78.18 110.689 78.18C109.869 78.18 109.229 77.97 108.769 77.55C108.319 77.13 108.094 76.56 108.094 75.84C108.094 75.11 108.359 74.55 108.889 74.16C109.429 73.77 110.264 73.575 111.394 73.575H112.924V72.81C112.924 72.26 112.774 71.84 112.474 71.55C112.174 71.26 111.714 71.115 111.094 71.115C110.624 71.115 110.229 71.22 109.909 71.43C109.599 71.64 109.339 71.92 109.129 72.27L108.409 71.595C108.619 71.175 108.954 70.82 109.414 70.53C109.874 70.23 110.454 70.08 111.154 70.08C112.094 70.08 112.824 70.31 113.344 70.77C113.864 71.23 114.124 71.87 114.124 72.69V76.95H115.009V78H114.334ZM110.884 77.16C111.184 77.16 111.459 77.125 111.709 77.055C111.959 76.985 112.174 76.885 112.354 76.755C112.534 76.625 112.674 76.475 112.774 76.305C112.874 76.135 112.924 75.95 112.924 75.75V74.475H111.334C110.644 74.475 110.139 74.575 109.819 74.775C109.509 74.975 109.354 75.265 109.354 75.645V75.96C109.354 76.34 109.489 76.635 109.759 76.845C110.039 77.055 110.414 77.16 110.884 77.16ZM118.431 78C118.011 78 117.691 77.885 117.471 77.655C117.261 77.415 117.156 77.105 117.156 76.725V71.31H115.881V70.26H116.601C116.861 70.26 117.036 70.21 117.126 70.11C117.226 70 117.276 69.815 117.276 69.555V68.115H118.356V70.26H120.051V71.31H118.356V76.95H119.931V78H118.431ZM122.58 68.445C122.32 68.445 122.13 68.385 122.01 68.265C121.9 68.135 121.845 67.97 121.845 67.77V67.575C121.845 67.375 121.9 67.215 122.01 67.095C122.13 66.965 122.32 66.9 122.58 66.9C122.84 66.9 123.025 66.965 123.135 67.095C123.255 67.215 123.315 67.375 123.315 67.575V67.77C123.315 67.97 123.255 68.135 123.135 68.265C123.025 68.385 122.84 68.445 122.58 68.445ZM121.98 70.26H123.18V78H121.98V70.26ZM128.655 78.18C128.135 78.18 127.66 78.085 127.23 77.895C126.8 77.705 126.43 77.435 126.12 77.085C125.82 76.725 125.585 76.3 125.415 75.81C125.245 75.31 125.16 74.75 125.16 74.13C125.16 73.52 125.245 72.965 125.415 72.465C125.585 71.965 125.82 71.54 126.12 71.19C126.43 70.83 126.8 70.555 127.23 70.365C127.66 70.175 128.135 70.08 128.655 70.08C129.175 70.08 129.645 70.175 130.065 70.365C130.495 70.555 130.865 70.83 131.175 71.19C131.485 71.54 131.725 71.965 131.895 72.465C132.065 72.965 132.15 73.52 132.15 74.13C132.15 74.75 132.065 75.31 131.895 75.81C131.725 76.3 131.485 76.725 131.175 77.085C130.865 77.435 130.495 77.705 130.065 77.895C129.645 78.085 129.175 78.18 128.655 78.18ZM128.655 77.115C129.305 77.115 129.835 76.915 130.245 76.515C130.655 76.115 130.86 75.505 130.86 74.685V73.575C130.86 72.755 130.655 72.145 130.245 71.745C129.835 71.345 129.305 71.145 128.655 71.145C128.005 71.145 127.475 71.345 127.065 71.745C126.655 72.145 126.45 72.755 126.45 73.575V74.685C126.45 75.505 126.655 76.115 127.065 76.515C127.475 76.915 128.005 77.115 128.655 77.115ZM134.124 78V70.26H135.324V71.52H135.384C135.574 71.08 135.839 70.73 136.179 70.47C136.529 70.21 136.994 70.08 137.574 70.08C138.374 70.08 139.004 70.34 139.464 70.86C139.934 71.37 140.169 72.095 140.169 73.035V78H138.969V73.245C138.969 71.855 138.384 71.16 137.214 71.16C136.974 71.16 136.739 71.19 136.509 71.25C136.289 71.31 136.089 71.4 135.909 71.52C135.729 71.64 135.584 71.795 135.474 71.985C135.374 72.165 135.324 72.38 135.324 72.63V78H134.124ZM145.384 70.26H146.554L147.379 73.605L148.204 76.995H148.234L149.179 73.605L150.154 70.26H151.219L152.224 73.605L153.184 76.995H153.214L154.009 73.605L154.849 70.26H155.974L153.919 78H152.434L151.354 74.28L150.679 71.925H150.649L149.989 74.28L148.909 78H147.454L145.384 70.26ZM158.308 68.445C158.048 68.445 157.858 68.385 157.738 68.265C157.628 68.135 157.573 67.97 157.573 67.77V67.575C157.573 67.375 157.628 67.215 157.738 67.095C157.858 66.965 158.048 66.9 158.308 66.9C158.568 66.9 158.753 66.965 158.863 67.095C158.983 67.215 159.043 67.375 159.043 67.575V67.77C159.043 67.97 158.983 68.135 158.863 68.265C158.753 68.385 158.568 68.445 158.308 68.445ZM157.708 70.26H158.908V78H157.708V70.26ZM163.168 78C162.748 78 162.428 77.885 162.208 77.655C161.998 77.415 161.893 77.105 161.893 76.725V71.31H160.618V70.26H161.338C161.598 70.26 161.773 70.21 161.863 70.11C161.963 70 162.013 69.815 162.013 69.555V68.115H163.093V70.26H164.788V71.31H163.093V76.95H164.668V78H163.168ZM166.716 66.9H167.916V71.52H167.976C168.166 71.08 168.431 70.73 168.771 70.47C169.121 70.21 169.586 70.08 170.166 70.08C170.966 70.08 171.596 70.34 172.056 70.86C172.526 71.37 172.761 72.095 172.761 73.035V78H171.561V73.245C171.561 71.855 170.976 71.16 169.806 71.16C169.566 71.16 169.331 71.19 169.101 71.25C168.881 71.31 168.681 71.4 168.501 71.52C168.321 71.64 168.176 71.795 168.066 71.985C167.966 72.165 167.916 72.38 167.916 72.63V78H166.716V66.9ZM185.537 76.41H185.477C185.367 76.92 185.067 77.345 184.577 77.685C184.097 78.015 183.457 78.18 182.657 78.18C182.037 78.18 181.462 78.065 180.932 77.835C180.402 77.595 179.942 77.25 179.552 76.8C179.172 76.34 178.872 75.775 178.652 75.105C178.442 74.425 178.337 73.645 178.337 72.765C178.337 71.895 178.447 71.125 178.667 70.455C178.887 69.775 179.197 69.205 179.597 68.745C179.997 68.285 180.477 67.94 181.037 67.71C181.597 67.47 182.222 67.35 182.912 67.35C183.852 67.35 184.647 67.56 185.297 67.98C185.947 68.39 186.452 68.965 186.812 69.705L185.432 70.515C185.232 70.025 184.922 69.63 184.502 69.33C184.082 69.02 183.552 68.865 182.912 68.865C182.082 68.865 181.412 69.13 180.902 69.66C180.402 70.19 180.152 70.94 180.152 71.91V73.62C180.152 74.59 180.402 75.34 180.902 75.87C181.412 76.4 182.082 76.665 182.912 76.665C183.242 76.665 183.557 76.625 183.857 76.545C184.157 76.455 184.417 76.33 184.637 76.17C184.867 76 185.047 75.795 185.177 75.555C185.317 75.305 185.387 75.015 185.387 74.685V73.875H183.227V72.42H187.022V78H185.537V76.41ZM194.973 78C194.543 78 194.213 77.88 193.983 77.64C193.753 77.39 193.613 77.075 193.563 76.695H193.488C193.338 77.185 193.063 77.555 192.663 77.805C192.263 78.055 191.778 78.18 191.208 78.18C190.398 78.18 189.773 77.97 189.333 77.55C188.903 77.13 188.688 76.565 188.688 75.855C188.688 75.075 188.968 74.49 189.528 74.1C190.098 73.71 190.928 73.515 192.018 73.515H193.428V72.855C193.428 72.375 193.298 72.005 193.038 71.745C192.778 71.485 192.373 71.355 191.823 71.355C191.363 71.355 190.988 71.455 190.698 71.655C190.408 71.855 190.163 72.11 189.963 72.42L188.988 71.535C189.248 71.095 189.613 70.735 190.083 70.455C190.553 70.165 191.168 70.02 191.928 70.02C192.938 70.02 193.713 70.255 194.253 70.725C194.793 71.195 195.063 71.87 195.063 72.75V76.665H195.888V78H194.973ZM191.673 76.935C192.183 76.935 192.603 76.825 192.933 76.605C193.263 76.375 193.428 76.07 193.428 75.69V74.565H192.048C190.918 74.565 190.353 74.915 190.353 75.615V75.885C190.353 76.235 190.468 76.5 190.698 76.68C190.938 76.85 191.263 76.935 191.673 76.935ZM197.49 78V70.2H199.125V71.7H199.2C199.31 71.3 199.54 70.95 199.89 70.65C200.24 70.35 200.725 70.2 201.345 70.2H201.78V71.775H201.135C200.485 71.775 199.985 71.88 199.635 72.09C199.295 72.3 199.125 72.61 199.125 73.02V78H197.49ZM208.149 70.2H209.724L206.439 79.545C206.349 79.805 206.244 80.025 206.124 80.205C206.014 80.395 205.879 80.545 205.719 80.655C205.569 80.775 205.384 80.86 205.164 80.91C204.944 80.97 204.684 81 204.384 81H203.439V79.665H204.759L205.209 78.345L202.374 70.2H204.009L205.569 74.79L206.019 76.485H206.094L206.589 74.79L208.149 70.2ZM222.744 69.99H222.669L221.844 71.685L219.549 75.87L217.254 71.685L216.429 69.99H216.354V78H214.734V67.53H216.744L219.549 72.855H219.639L222.444 67.53H224.364V78H222.744V69.99ZM231.556 76.71H231.496C231.426 76.9 231.331 77.085 231.211 77.265C231.101 77.445 230.956 77.605 230.776 77.745C230.606 77.875 230.396 77.98 230.146 78.06C229.906 78.14 229.626 78.18 229.306 78.18C228.496 78.18 227.866 77.92 227.416 77.4C226.976 76.88 226.756 76.135 226.756 75.165V70.2H228.391V74.955C228.391 76.165 228.891 76.77 229.891 76.77C230.101 76.77 230.306 76.745 230.506 76.695C230.706 76.635 230.881 76.55 231.031 76.44C231.191 76.33 231.316 76.19 231.406 76.02C231.506 75.85 231.556 75.65 231.556 75.42V70.2H233.191V78H231.556V76.71ZM235.532 78V70.2H237.167V71.7H237.242C237.352 71.3 237.582 70.95 237.932 70.65C238.282 70.35 238.767 70.2 239.387 70.2H239.822V71.775H239.177C238.527 71.775 238.027 71.88 237.677 72.09C237.337 72.3 237.167 72.61 237.167 73.02V78H235.532ZM241.274 78V70.2H242.909V71.7H242.984C243.094 71.3 243.324 70.95 243.674 70.65C244.024 70.35 244.509 70.2 245.129 70.2H245.564V71.775H244.919C244.269 71.775 243.769 71.88 243.419 72.09C243.079 72.3 242.909 72.61 242.909 73.02V78H241.274ZM252.614 78C252.184 78 251.854 77.88 251.624 77.64C251.394 77.39 251.254 77.075 251.204 76.695H251.129C250.979 77.185 250.704 77.555 250.304 77.805C249.904 78.055 249.419 78.18 248.849 78.18C248.039 78.18 247.414 77.97 246.974 77.55C246.544 77.13 246.329 76.565 246.329 75.855C246.329 75.075 246.609 74.49 247.169 74.1C247.739 73.71 248.569 73.515 249.659 73.515H251.069V72.855C251.069 72.375 250.939 72.005 250.679 71.745C250.419 71.485 250.014 71.355 249.464 71.355C249.004 71.355 248.629 71.455 248.339 71.655C248.049 71.855 247.804 72.11 247.604 72.42L246.629 71.535C246.889 71.095 247.254 70.735 247.724 70.455C248.194 70.165 248.809 70.02 249.569 70.02C250.579 70.02 251.354 70.255 251.894 70.725C252.434 71.195 252.704 71.87 252.704 72.75V76.665H253.529V78H252.614ZM249.314 76.935C249.824 76.935 250.244 76.825 250.574 76.605C250.904 76.375 251.069 76.07 251.069 75.69V74.565H249.689C248.559 74.565 247.994 74.915 247.994 75.615V75.885C247.994 76.235 248.109 76.5 248.339 76.68C248.579 76.85 248.904 76.935 249.314 76.935ZM259.814 70.2H261.389L258.104 79.545C258.014 79.805 257.909 80.025 257.789 80.205C257.679 80.395 257.544 80.545 257.384 80.655C257.234 80.775 257.049 80.86 256.829 80.91C256.609 80.97 256.349 81 256.049 81H255.104V79.665H256.424L256.874 78.345L254.039 70.2H255.674L257.234 74.79L257.684 76.485H257.759L258.254 74.79L259.814 70.2Z" fill="black"/>
<path d="M57.14 95.824V103H55.784V95.824H53.288V94.624H59.636V95.824H57.14ZM60.5275 103V101.896H61.6675V95.728H60.5275V94.624H64.1755V95.728H63.0235V101.896H64.1755V103H60.5275ZM72.2877 96.592H72.2277L71.5677 97.948L69.7317 101.296L67.8957 97.948L67.2357 96.592H67.1757V103H65.8797V94.624H67.4877L69.7317 98.884H69.8037L72.0477 94.624H73.5837V103H72.2877V96.592ZM75.6531 103V94.624H81.0171V95.824H77.0091V98.152H80.6451V99.352H77.0091V101.8H81.0171V103H75.6531Z" fill="black" fill-opacity="0.4"/>
<path d="M54.32 124V122.89H57.245V114.46H57.14L54.5 116.92L53.765 116.125L56.54 113.53H58.505V122.89H61.205V124H54.32ZM65.5941 124.18C64.8741 124.18 64.2691 124.045 63.7791 123.775C63.2991 123.495 62.8841 123.125 62.5341 122.665L63.3891 121.975C63.6891 122.355 64.0241 122.65 64.3941 122.86C64.7641 123.06 65.1941 123.16 65.6841 123.16C66.1941 123.16 66.5891 123.05 66.8691 122.83C67.1591 122.61 67.3041 122.3 67.3041 121.9C67.3041 121.6 67.2041 121.345 67.0041 121.135C66.8141 120.915 66.4641 120.765 65.9541 120.685L65.3391 120.595C64.9791 120.545 64.6491 120.47 64.3491 120.37C64.0491 120.26 63.7841 120.12 63.5541 119.95C63.3341 119.77 63.1591 119.55 63.0291 119.29C62.9091 119.03 62.8491 118.72 62.8491 118.36C62.8491 117.98 62.9191 117.65 63.0591 117.37C63.1991 117.08 63.3891 116.84 63.6291 116.65C63.8791 116.46 64.1741 116.32 64.5141 116.23C64.8541 116.13 65.2191 116.08 65.6091 116.08C66.2391 116.08 66.7641 116.19 67.1841 116.41C67.6141 116.63 67.9891 116.935 68.3091 117.325L67.5141 118.045C67.3441 117.805 67.0941 117.59 66.7641 117.4C66.4341 117.2 66.0191 117.1 65.5191 117.1C65.0191 117.1 64.6391 117.21 64.3791 117.43C64.1291 117.64 64.0041 117.93 64.0041 118.3C64.0041 118.68 64.1291 118.955 64.3791 119.125C64.6391 119.295 65.0091 119.42 65.4891 119.5L66.0891 119.59C66.9491 119.72 67.5591 119.97 67.9191 120.34C68.2791 120.7 68.4591 121.175 68.4591 121.765C68.4591 122.515 68.2041 123.105 67.6941 123.535C67.1841 123.965 66.4841 124.18 65.5941 124.18ZM72.1862 124C71.7662 124 71.4462 123.885 71.2262 123.655C71.0162 123.415 70.9112 123.105 70.9112 122.725V117.31H69.6362V116.26H70.3562C70.6162 116.26 70.7912 116.21 70.8812 116.11C70.9812 116 71.0312 115.815 71.0312 115.555V114.115H72.1112V116.26H73.8062V117.31H72.1112V122.95H73.6862V124H72.1862ZM87.5599 115.18H87.4849L86.5999 116.935L84.0949 121.495L81.5899 116.935L80.7049 115.18H80.6299V124H79.3999V113.53H81.0799L84.0799 119.17H84.1549L87.1699 113.53H88.7899V124H87.5599V115.18ZM97.0777 124C96.6277 124 96.3027 123.88 96.1027 123.64C95.9127 123.4 95.7927 123.1 95.7427 122.74H95.6677C95.4977 123.22 95.2177 123.58 94.8277 123.82C94.4377 124.06 93.9727 124.18 93.4327 124.18C92.6127 124.18 91.9727 123.97 91.5127 123.55C91.0627 123.13 90.8377 122.56 90.8377 121.84C90.8377 121.11 91.1027 120.55 91.6327 120.16C92.1727 119.77 93.0077 119.575 94.1377 119.575H95.6677V118.81C95.6677 118.26 95.5177 117.84 95.2177 117.55C94.9177 117.26 94.4577 117.115 93.8377 117.115C93.3677 117.115 92.9727 117.22 92.6527 117.43C92.3427 117.64 92.0827 117.92 91.8727 118.27L91.1527 117.595C91.3627 117.175 91.6977 116.82 92.1577 116.53C92.6177 116.23 93.1977 116.08 93.8977 116.08C94.8377 116.08 95.5677 116.31 96.0877 116.77C96.6077 117.23 96.8677 117.87 96.8677 118.69V122.95H97.7527V124H97.0777ZM93.6277 123.16C93.9277 123.16 94.2027 123.125 94.4527 123.055C94.7027 122.985 94.9177 122.885 95.0977 122.755C95.2777 122.625 95.4177 122.475 95.5177 122.305C95.6177 122.135 95.6677 121.95 95.6677 121.75V120.475H94.0777C93.3877 120.475 92.8827 120.575 92.5627 120.775C92.2527 120.975 92.0977 121.265 92.0977 121.645V121.96C92.0977 122.34 92.2327 122.635 92.5027 122.845C92.7827 123.055 93.1577 123.16 93.6277 123.16ZM99.4654 124V116.26H100.665V117.685H100.74C100.88 117.315 101.13 116.985 101.49 116.695C101.85 116.405 102.345 116.26 102.975 116.26H103.44V117.46H102.735C102.085 117.46 101.575 117.585 101.205 117.835C100.845 118.075 100.665 118.38 100.665 118.75V124H99.4654ZM107.78 124.18C107.24 124.18 106.755 124.085 106.325 123.895C105.895 123.705 105.53 123.435 105.23 123.085C104.94 122.735 104.715 122.31 104.555 121.81C104.405 121.31 104.33 120.75 104.33 120.13C104.33 119.51 104.405 118.95 104.555 118.45C104.715 117.95 104.94 117.525 105.23 117.175C105.53 116.825 105.895 116.555 106.325 116.365C106.755 116.175 107.24 116.08 107.78 116.08C108.55 116.08 109.165 116.25 109.625 116.59C110.095 116.92 110.445 117.355 110.675 117.895L109.67 118.405C109.53 118.005 109.3 117.695 108.98 117.475C108.66 117.255 108.26 117.145 107.78 117.145C107.42 117.145 107.105 117.205 106.835 117.325C106.565 117.435 106.34 117.595 106.16 117.805C105.98 118.005 105.845 118.25 105.755 118.54C105.665 118.82 105.62 119.13 105.62 119.47V120.79C105.62 121.47 105.8 122.03 106.16 122.47C106.53 122.9 107.07 123.115 107.78 123.115C108.75 123.115 109.45 122.665 109.88 121.765L110.75 122.35C110.5 122.91 110.125 123.355 109.625 123.685C109.135 124.015 108.52 124.18 107.78 124.18ZM112.444 112.9H113.644V117.52H113.704C113.894 117.08 114.159 116.73 114.499 116.47C114.849 116.21 115.314 116.08 115.894 116.08C116.694 116.08 117.324 116.34 117.784 116.86C118.254 117.37 118.489 118.095 118.489 119.035V124H117.289V119.245C117.289 117.855 116.704 117.16 115.534 117.16C115.294 117.16 115.059 117.19 114.829 117.25C114.609 117.31 114.409 117.4 114.229 117.52C114.049 117.64 113.904 117.795 113.794 117.985C113.694 118.165 113.644 118.38 113.644 118.63V124H112.444V112.9ZM131.234 124H124.364V122.71L127.784 119.56C128.274 119.11 128.684 118.635 129.014 118.135C129.344 117.625 129.509 117.115 129.509 116.605V116.425C129.509 115.845 129.349 115.375 129.029 115.015C128.709 114.655 128.224 114.475 127.574 114.475C127.254 114.475 126.974 114.52 126.734 114.61C126.494 114.7 126.284 114.825 126.104 114.985C125.934 115.145 125.789 115.335 125.669 115.555C125.559 115.765 125.469 115.995 125.399 116.245L124.274 115.81C124.374 115.5 124.509 115.2 124.679 114.91C124.859 114.61 125.079 114.345 125.339 114.115C125.609 113.885 125.929 113.7 126.299 113.56C126.679 113.42 127.124 113.35 127.634 113.35C128.144 113.35 128.599 113.425 128.999 113.575C129.399 113.725 129.734 113.935 130.004 114.205C130.274 114.475 130.479 114.795 130.619 115.165C130.769 115.535 130.844 115.945 130.844 116.395C130.844 116.805 130.784 117.185 130.664 117.535C130.554 117.885 130.399 118.22 130.199 118.54C129.999 118.85 129.754 119.155 129.464 119.455C129.184 119.755 128.879 120.055 128.549 120.355L125.729 122.89H131.234V124ZM136.733 124.18C135.483 124.18 134.568 123.705 133.988 122.755C133.418 121.805 133.133 120.475 133.133 118.765C133.133 117.055 133.418 115.725 133.988 114.775C134.568 113.825 135.483 113.35 136.733 113.35C137.983 113.35 138.893 113.825 139.463 114.775C140.043 115.725 140.333 117.055 140.333 118.765C140.333 120.475 140.043 121.805 139.463 122.755C138.893 123.705 137.983 124.18 136.733 124.18ZM136.733 123.085C137.143 123.085 137.493 123 137.783 122.83C138.073 122.66 138.308 122.42 138.488 122.11C138.668 121.8 138.798 121.435 138.878 121.015C138.968 120.595 139.013 120.13 139.013 119.62V117.91C139.013 117.4 138.968 116.935 138.878 116.515C138.798 116.095 138.668 115.73 138.488 115.42C138.308 115.11 138.073 114.87 137.783 114.7C137.493 114.53 137.143 114.445 136.733 114.445C136.323 114.445 135.973 114.53 135.683 114.7C135.393 114.87 135.158 115.11 134.978 115.42C134.798 115.73 134.663 116.095 134.573 116.515C134.493 116.935 134.453 117.4 134.453 117.91V119.62C134.453 120.13 134.493 120.595 134.573 121.015C134.663 121.435 134.798 121.8 134.978 122.11C135.158 122.42 135.393 122.66 135.683 122.83C135.973 123 136.323 123.085 136.733 123.085ZM149.223 124H142.353V122.71L145.773 119.56C146.263 119.11 146.673 118.635 147.003 118.135C147.333 117.625 147.498 117.115 147.498 116.605V116.425C147.498 115.845 147.338 115.375 147.018 115.015C146.698 114.655 146.213 114.475 145.563 114.475C145.243 114.475 144.963 114.52 144.723 114.61C144.483 114.7 144.273 114.825 144.093 114.985C143.923 115.145 143.778 115.335 143.658 115.555C143.548 115.765 143.458 115.995 143.388 116.245L142.263 115.81C142.363 115.5 142.498 115.2 142.668 114.91C142.848 114.61 143.068 114.345 143.328 114.115C143.598 113.885 143.918 113.7 144.288 113.56C144.668 113.42 145.113 113.35 145.623 113.35C146.133 113.35 146.588 113.425 146.988 113.575C147.388 113.725 147.723 113.935 147.993 114.205C148.263 114.475 148.468 114.795 148.608 115.165C148.758 115.535 148.833 115.945 148.833 116.395C148.833 116.805 148.773 117.185 148.653 117.535C148.543 117.885 148.388 118.22 148.188 118.54C147.988 118.85 147.743 119.155 147.453 119.455C147.173 119.755 146.868 120.055 146.538 120.355L143.718 122.89H149.223V124ZM155.847 124V121.945H150.792V120.835L155.172 113.53H157.047V120.895H158.562V121.945H157.047V124H155.847ZM151.977 120.895H155.847V114.505H155.772L151.977 120.895ZM169.661 124C169.211 124 168.886 123.88 168.686 123.64C168.496 123.4 168.376 123.1 168.326 122.74H168.251C168.081 123.22 167.801 123.58 167.411 123.82C167.021 124.06 166.556 124.18 166.016 124.18C165.196 124.18 164.556 123.97 164.096 123.55C163.646 123.13 163.421 122.56 163.421 121.84C163.421 121.11 163.686 120.55 164.216 120.16C164.756 119.77 165.591 119.575 166.721 119.575H168.251V118.81C168.251 118.26 168.101 117.84 167.801 117.55C167.501 117.26 167.041 117.115 166.421 117.115C165.951 117.115 165.556 117.22 165.236 117.43C164.926 117.64 164.666 117.92 164.456 118.27L163.736 117.595C163.946 117.175 164.281 116.82 164.741 116.53C165.201 116.23 165.781 116.08 166.481 116.08C167.421 116.08 168.151 116.31 168.671 116.77C169.191 117.23 169.451 117.87 169.451 118.69V122.95H170.336V124H169.661ZM166.211 123.16C166.511 123.16 166.786 123.125 167.036 123.055C167.286 122.985 167.501 122.885 167.681 122.755C167.861 122.625 168.001 122.475 168.101 122.305C168.201 122.135 168.251 121.95 168.251 121.75V120.475H166.661C165.971 120.475 165.466 120.575 165.146 120.775C164.836 120.975 164.681 121.265 164.681 121.645V121.96C164.681 122.34 164.816 122.635 165.086 122.845C165.366 123.055 165.741 123.16 166.211 123.16ZM173.758 124C173.338 124 173.018 123.885 172.798 123.655C172.588 123.415 172.483 123.105 172.483 122.725V117.31H171.208V116.26H171.928C172.188 116.26 172.363 116.21 172.453 116.11C172.553 116 172.603 115.815 172.603 115.555V114.115H173.683V116.26H175.378V117.31H173.683V122.95H175.258V124H173.758ZM180.897 124V122.89H183.822V114.46H183.717L181.077 116.92L180.342 116.125L183.117 113.53H185.082V122.89H187.782V124H180.897ZM193.086 124.18C192.546 124.18 192.056 124.09 191.616 123.91C191.186 123.72 190.816 123.455 190.506 123.115C190.206 122.765 189.976 122.34 189.816 121.84C189.656 121.34 189.576 120.78 189.576 120.16C189.576 119.38 189.691 118.65 189.921 117.97C190.151 117.28 190.446 116.655 190.806 116.095C191.176 115.525 191.581 115.025 192.021 114.595C192.461 114.155 192.891 113.8 193.311 113.53H194.931C194.371 113.94 193.871 114.34 193.431 114.73C192.991 115.12 192.606 115.53 192.276 115.96C191.946 116.38 191.666 116.835 191.436 117.325C191.206 117.805 191.021 118.35 190.881 118.96L190.956 118.99C191.206 118.56 191.526 118.205 191.916 117.925C192.316 117.635 192.836 117.49 193.476 117.49C193.926 117.49 194.341 117.565 194.721 117.715C195.101 117.865 195.426 118.08 195.696 118.36C195.966 118.64 196.176 118.98 196.326 119.38C196.486 119.78 196.566 120.225 196.566 120.715C196.566 121.225 196.481 121.695 196.311 122.125C196.151 122.545 195.916 122.91 195.606 123.22C195.306 123.52 194.941 123.755 194.511 123.925C194.081 124.095 193.606 124.18 193.086 124.18ZM193.071 123.085C193.761 123.085 194.296 122.895 194.676 122.515C195.066 122.135 195.261 121.59 195.261 120.88V120.76C195.261 120.05 195.066 119.505 194.676 119.125C194.296 118.745 193.761 118.555 193.071 118.555C192.381 118.555 191.841 118.745 191.451 119.125C191.071 119.505 190.881 120.05 190.881 120.76V120.88C190.881 121.59 191.071 122.135 191.451 122.515C191.841 122.895 192.381 123.085 193.071 123.085ZM199.755 124.18C199.435 124.18 199.2 124.1 199.05 123.94C198.91 123.78 198.84 123.57 198.84 123.31V123.115C198.84 122.855 198.91 122.645 199.05 122.485C199.2 122.325 199.435 122.245 199.755 122.245C200.075 122.245 200.305 122.325 200.445 122.485C200.595 122.645 200.67 122.855 200.67 123.115V123.31C200.67 123.57 200.595 123.78 200.445 123.94C200.305 124.1 200.075 124.18 199.755 124.18ZM199.755 118.015C199.435 118.015 199.2 117.935 199.05 117.775C198.91 117.615 198.84 117.405 198.84 117.145V116.95C198.84 116.69 198.91 116.48 199.05 116.32C199.2 116.16 199.435 116.08 199.755 116.08C200.075 116.08 200.305 116.16 200.445 116.32C200.595 116.48 200.67 116.69 200.67 116.95V117.145C200.67 117.405 200.595 117.615 200.445 117.775C200.305 117.935 200.075 118.015 199.755 118.015ZM207.57 124V121.945H202.515V120.835L206.895 113.53H208.77V120.895H210.285V121.945H208.77V124H207.57ZM203.7 120.895H207.57V114.505H207.495L203.7 120.895ZM213.564 124L217.569 114.61H213.099V116.56H211.974V113.53H218.844V114.64L214.914 124H213.564ZM221.209 116.26H222.409V117.52H222.469C222.669 117.03 222.959 116.67 223.339 116.44C223.729 116.2 224.194 116.08 224.734 116.08C225.214 116.08 225.649 116.175 226.039 116.365C226.429 116.555 226.759 116.825 227.029 117.175C227.309 117.525 227.519 117.95 227.659 118.45C227.809 118.95 227.884 119.51 227.884 120.13C227.884 120.75 227.809 121.31 227.659 121.81C227.519 122.31 227.309 122.735 227.029 123.085C226.759 123.435 226.429 123.705 226.039 123.895C225.649 124.085 225.214 124.18 224.734 124.18C223.684 124.18 222.929 123.7 222.469 122.74H222.409V127H221.209V116.26ZM224.404 123.1C225.084 123.1 225.619 122.89 226.009 122.47C226.399 122.04 226.594 121.48 226.594 120.79V119.47C226.594 118.78 226.399 118.225 226.009 117.805C225.619 117.375 225.084 117.16 224.404 117.16C224.134 117.16 223.874 117.2 223.624 117.28C223.384 117.35 223.174 117.45 222.994 117.58C222.814 117.71 222.669 117.87 222.559 118.06C222.459 118.24 222.409 118.435 222.409 118.645V121.525C222.409 121.775 222.459 122 222.559 122.2C222.669 122.39 222.814 122.555 222.994 122.695C223.174 122.825 223.384 122.925 223.624 122.995C223.874 123.065 224.134 123.1 224.404 123.1ZM229.91 124V116.26H231.11V117.52H231.17C231.26 117.32 231.36 117.135 231.47 116.965C231.59 116.785 231.73 116.63 231.89 116.5C232.06 116.37 232.255 116.27 232.475 116.2C232.695 116.12 232.955 116.08 233.255 116.08C233.765 116.08 234.235 116.205 234.665 116.455C235.095 116.695 235.415 117.095 235.625 117.655H235.655C235.795 117.235 236.055 116.87 236.435 116.56C236.825 116.24 237.35 116.08 238.01 116.08C238.8 116.08 239.415 116.34 239.855 116.86C240.305 117.37 240.53 118.095 240.53 119.035V124H239.33V119.245C239.33 118.555 239.195 118.035 238.925 117.685C238.655 117.335 238.225 117.16 237.635 117.16C237.395 117.16 237.165 117.19 236.945 117.25C236.735 117.31 236.545 117.4 236.375 117.52C236.205 117.64 236.07 117.795 235.97 117.985C235.87 118.165 235.82 118.38 235.82 118.63V124H234.62V119.245C234.62 118.555 234.485 118.035 234.215 117.685C233.945 117.335 233.525 117.16 232.955 117.16C232.715 117.16 232.485 117.19 232.265 117.25C232.045 117.31 231.85 117.4 231.68 117.52C231.51 117.64 231.37 117.795 231.26 117.985C231.16 118.165 231.11 118.38 231.11 118.63V124H229.91Z" fill="black"/>
<path opacity="0.4" d="M47.5669 171.851C46.1558 171.851 45.3008 170.872 45.3008 169.602C45.3008 169.211 45.4004 168.813 45.6245 168.439L52.0659 157.217C52.4893 156.461 53.2363 156.08 54 156.08C54.7637 156.08 55.5024 156.461 55.9341 157.217L62.3755 168.439C62.583 168.805 62.6992 169.211 62.6992 169.602C62.6992 170.872 61.8442 171.851 60.4331 171.851H47.5669ZM47.5752 170.548H60.4165C60.9893 170.548 61.3545 170.1 61.3545 169.593C61.3545 169.436 61.313 169.245 61.2217 169.07L54.7886 157.848C54.6143 157.541 54.3071 157.408 54 157.408C53.6929 157.408 53.3774 157.541 53.2031 157.848L46.77 169.062C46.6787 169.236 46.6455 169.436 46.6455 169.593C46.6455 170.1 46.9941 170.548 47.5752 170.548ZM54 166.256C53.585 166.256 53.3525 166.016 53.3442 165.592L53.2363 161.209C53.228 160.786 53.5435 160.479 53.9917 160.479C54.4316 160.479 54.7637 160.794 54.7554 161.218L54.6392 165.592C54.6309 166.024 54.3984 166.256 54 166.256ZM54 168.954C53.5186 168.954 53.1035 168.564 53.1035 168.091C53.1035 167.609 53.5103 167.228 54 167.228C54.4897 167.228 54.8965 167.601 54.8965 168.091C54.8965 168.572 54.4814 168.954 54 168.954Z" fill="black"/>
<path d="M76.832 169.5H75.488V158.332H79.936C80.9173 158.332 81.68 158.604 82.224 159.148C82.7787 159.692 83.056 160.476 83.056 161.5C83.056 162.321 82.864 162.999 82.48 163.532C82.1067 164.055 81.552 164.401 80.816 164.572L83.376 169.5H81.856L79.44 164.7H76.832V169.5ZM79.936 163.548C80.4693 163.548 80.88 163.409 81.168 163.132C81.4667 162.855 81.616 162.46 81.616 161.948V161.116C81.616 160.604 81.4667 160.209 81.168 159.932C80.88 159.655 80.4693 159.516 79.936 159.516H76.832V163.548H79.936ZM91.4381 169.5C90.9581 169.5 90.6115 169.372 90.3981 169.116C90.1955 168.86 90.0675 168.54 90.0141 168.156H89.9341C89.7528 168.668 89.4541 169.052 89.0381 169.308C88.6221 169.564 88.1261 169.692 87.5501 169.692C86.6755 169.692 85.9928 169.468 85.5021 169.02C85.0221 168.572 84.7821 167.964 84.7821 167.196C84.7821 166.417 85.0648 165.82 85.6301 165.404C86.2061 164.988 87.0968 164.78 88.3021 164.78H89.9341V163.964C89.9341 163.377 89.7741 162.929 89.4541 162.62C89.1341 162.311 88.6435 162.156 87.9821 162.156C87.4808 162.156 87.0595 162.268 86.7181 162.492C86.3875 162.716 86.1101 163.015 85.8861 163.388L85.1181 162.668C85.3421 162.22 85.6995 161.841 86.1901 161.532C86.6808 161.212 87.2995 161.052 88.0461 161.052C89.0488 161.052 89.8275 161.297 90.3821 161.788C90.9368 162.279 91.2141 162.961 91.2141 163.836V168.38H92.1581V169.5H91.4381ZM87.7581 168.604C88.0781 168.604 88.3715 168.567 88.6381 168.492C88.9048 168.417 89.1341 168.311 89.3261 168.172C89.5181 168.033 89.6675 167.873 89.7741 167.692C89.8808 167.511 89.9341 167.313 89.9341 167.1V165.74H88.2381C87.5021 165.74 86.9635 165.847 86.6221 166.06C86.2915 166.273 86.1261 166.583 86.1261 166.988V167.324C86.1261 167.729 86.2701 168.044 86.5581 168.268C86.8568 168.492 87.2568 168.604 87.7581 168.604ZM94.625 159.308C94.3477 159.308 94.145 159.244 94.017 159.116C93.8997 158.977 93.841 158.801 93.841 158.588V158.38C93.841 158.167 93.8997 157.996 94.017 157.868C94.145 157.729 94.3477 157.66 94.625 157.66C94.9023 157.66 95.0997 157.729 95.217 157.868C95.345 157.996 95.409 158.167 95.409 158.38V158.588C95.409 158.801 95.345 158.977 95.217 159.116C95.0997 159.244 94.9023 159.308 94.625 159.308ZM93.985 161.244H95.265V169.5H93.985V161.244ZM100.465 169.692C99.697 169.692 99.0517 169.548 98.529 169.26C98.017 168.961 97.5743 168.567 97.201 168.076L98.113 167.34C98.433 167.745 98.7903 168.06 99.185 168.284C99.5797 168.497 100.038 168.604 100.561 168.604C101.105 168.604 101.526 168.487 101.825 168.252C102.134 168.017 102.289 167.687 102.289 167.26C102.289 166.94 102.182 166.668 101.969 166.444C101.766 166.209 101.393 166.049 100.849 165.964L100.193 165.868C99.809 165.815 99.457 165.735 99.137 165.628C98.817 165.511 98.5343 165.361 98.289 165.18C98.0543 164.988 97.8677 164.753 97.729 164.476C97.601 164.199 97.537 163.868 97.537 163.484C97.537 163.079 97.6117 162.727 97.761 162.428C97.9103 162.119 98.113 161.863 98.369 161.66C98.6357 161.457 98.9503 161.308 99.313 161.212C99.6757 161.105 100.065 161.052 100.481 161.052C101.153 161.052 101.713 161.169 102.161 161.404C102.62 161.639 103.02 161.964 103.361 162.38L102.513 163.148C102.332 162.892 102.065 162.663 101.713 162.46C101.361 162.247 100.918 162.14 100.385 162.14C99.8517 162.14 99.4463 162.257 99.169 162.492C98.9023 162.716 98.769 163.025 98.769 163.42C98.769 163.825 98.9023 164.119 99.169 164.3C99.4463 164.481 99.841 164.615 100.353 164.7L100.993 164.796C101.91 164.935 102.561 165.201 102.945 165.596C103.329 165.98 103.521 166.487 103.521 167.116C103.521 167.916 103.249 168.545 102.705 169.004C102.161 169.463 101.414 169.692 100.465 169.692ZM108.886 169.692C108.321 169.692 107.809 169.591 107.35 169.388C106.902 169.185 106.513 168.897 106.182 168.524C105.862 168.14 105.611 167.687 105.43 167.164C105.259 166.631 105.174 166.033 105.174 165.372C105.174 164.721 105.259 164.129 105.43 163.596C105.611 163.063 105.862 162.609 106.182 162.236C106.513 161.852 106.902 161.559 107.35 161.356C107.809 161.153 108.321 161.052 108.886 161.052C109.441 161.052 109.937 161.153 110.374 161.356C110.811 161.559 111.185 161.841 111.494 162.204C111.803 162.556 112.038 162.977 112.198 163.468C112.369 163.959 112.454 164.497 112.454 165.084V165.692H106.518V166.076C106.518 166.428 106.571 166.759 106.678 167.068C106.795 167.367 106.955 167.628 107.158 167.852C107.371 168.076 107.627 168.252 107.926 168.38C108.235 168.508 108.582 168.572 108.966 168.572C109.489 168.572 109.942 168.449 110.326 168.204C110.721 167.959 111.025 167.607 111.238 167.148L112.15 167.804C111.883 168.369 111.467 168.828 110.902 169.18C110.337 169.521 109.665 169.692 108.886 169.692ZM108.886 162.124C108.534 162.124 108.214 162.188 107.926 162.316C107.638 162.433 107.387 162.604 107.174 162.828C106.971 163.052 106.811 163.319 106.694 163.628C106.577 163.927 106.518 164.257 106.518 164.62V164.732H111.078V164.556C111.078 163.82 110.875 163.233 110.47 162.796C110.075 162.348 109.547 162.124 108.886 162.124ZM124.344 169.5C123.864 169.5 123.518 169.372 123.304 169.116C123.102 168.86 122.974 168.54 122.92 168.156H122.84C122.659 168.668 122.36 169.052 121.944 169.308C121.528 169.564 121.032 169.692 120.456 169.692C119.582 169.692 118.899 169.468 118.408 169.02C117.928 168.572 117.688 167.964 117.688 167.196C117.688 166.417 117.971 165.82 118.536 165.404C119.112 164.988 120.003 164.78 121.208 164.78H122.84V163.964C122.84 163.377 122.68 162.929 122.36 162.62C122.04 162.311 121.55 162.156 120.888 162.156C120.387 162.156 119.966 162.268 119.624 162.492C119.294 162.716 119.016 163.015 118.792 163.388L118.024 162.668C118.248 162.22 118.606 161.841 119.096 161.532C119.587 161.212 120.206 161.052 120.952 161.052C121.955 161.052 122.734 161.297 123.288 161.788C123.843 162.279 124.12 162.961 124.12 163.836V168.38H125.064V169.5H124.344ZM120.664 168.604C120.984 168.604 121.278 168.567 121.544 168.492C121.811 168.417 122.04 168.311 122.232 168.172C122.424 168.033 122.574 167.873 122.68 167.692C122.787 167.511 122.84 167.313 122.84 167.1V165.74H121.144C120.408 165.74 119.87 165.847 119.528 166.06C119.198 166.273 119.032 166.583 119.032 166.988V167.324C119.032 167.729 119.176 168.044 119.464 168.268C119.763 168.492 120.163 168.604 120.664 168.604ZM126.891 169.5V161.244H128.171V162.588H128.235C128.438 162.119 128.721 161.745 129.083 161.468C129.457 161.191 129.953 161.052 130.571 161.052C131.425 161.052 132.097 161.329 132.587 161.884C133.089 162.428 133.339 163.201 133.339 164.204V169.5H132.059V164.428C132.059 162.945 131.435 162.204 130.187 162.204C129.931 162.204 129.681 162.236 129.435 162.3C129.201 162.364 128.987 162.46 128.795 162.588C128.603 162.716 128.449 162.881 128.331 163.084C128.225 163.276 128.171 163.505 128.171 163.772V169.5H126.891ZM140.406 159.308C140.129 159.308 139.926 159.244 139.798 159.116C139.681 158.977 139.622 158.801 139.622 158.588V158.38C139.622 158.167 139.681 157.996 139.798 157.868C139.926 157.729 140.129 157.66 140.406 157.66C140.684 157.66 140.881 157.729 140.998 157.868C141.126 157.996 141.19 158.167 141.19 158.38V158.588C141.19 158.801 141.126 158.977 140.998 159.116C140.881 159.244 140.684 159.308 140.406 159.308ZM139.766 161.244H141.046V169.5H139.766V161.244ZM143.766 169.5V161.244H145.046V162.588H145.11C145.313 162.119 145.596 161.745 145.958 161.468C146.332 161.191 146.828 161.052 147.446 161.052C148.3 161.052 148.972 161.329 149.462 161.884C149.964 162.428 150.214 163.201 150.214 164.204V169.5H148.934V164.428C148.934 162.945 148.31 162.204 147.062 162.204C146.806 162.204 146.556 162.236 146.31 162.3C146.076 162.364 145.862 162.46 145.67 162.588C145.478 162.716 145.324 162.881 145.206 163.084C145.1 163.276 145.046 163.505 145.046 163.772V169.5H143.766ZM155.932 169.692C155.356 169.692 154.839 169.591 154.38 169.388C153.921 169.185 153.532 168.897 153.212 168.524C152.903 168.151 152.663 167.697 152.492 167.164C152.332 166.631 152.252 166.033 152.252 165.372C152.252 164.711 152.332 164.113 152.492 163.58C152.663 163.047 152.903 162.593 153.212 162.22C153.532 161.847 153.921 161.559 154.38 161.356C154.839 161.153 155.356 161.052 155.932 161.052C156.753 161.052 157.409 161.233 157.9 161.596C158.401 161.948 158.775 162.412 159.02 162.988L157.948 163.532C157.799 163.105 157.553 162.775 157.212 162.54C156.871 162.305 156.444 162.188 155.932 162.188C155.548 162.188 155.212 162.252 154.924 162.38C154.636 162.497 154.396 162.668 154.204 162.892C154.012 163.105 153.868 163.367 153.772 163.676C153.676 163.975 153.628 164.305 153.628 164.668V166.076C153.628 166.801 153.82 167.399 154.204 167.868C154.599 168.327 155.175 168.556 155.932 168.556C156.967 168.556 157.713 168.076 158.172 167.116L159.1 167.74C158.833 168.337 158.433 168.812 157.9 169.164C157.377 169.516 156.721 169.692 155.932 169.692ZM161.547 159.308C161.27 159.308 161.067 159.244 160.939 159.116C160.822 158.977 160.763 158.801 160.763 158.588V158.38C160.763 158.167 160.822 157.996 160.939 157.868C161.067 157.729 161.27 157.66 161.547 157.66C161.824 157.66 162.022 157.729 162.139 157.868C162.267 157.996 162.331 158.167 162.331 158.38V158.588C162.331 158.801 162.267 158.977 162.139 159.116C162.022 159.244 161.824 159.308 161.547 159.308ZM160.907 161.244H162.187V169.5H160.907V161.244ZM170.187 168.156H170.123C169.622 169.18 168.816 169.692 167.707 169.692C167.195 169.692 166.731 169.591 166.315 169.388C165.899 169.185 165.542 168.897 165.243 168.524C164.955 168.151 164.731 167.697 164.571 167.164C164.422 166.631 164.347 166.033 164.347 165.372C164.347 164.711 164.422 164.113 164.571 163.58C164.731 163.047 164.955 162.593 165.243 162.22C165.542 161.847 165.899 161.559 166.315 161.356C166.731 161.153 167.195 161.052 167.707 161.052C168.283 161.052 168.774 161.18 169.179 161.436C169.595 161.681 169.91 162.065 170.123 162.588H170.187V157.66H171.467V169.5H170.187V168.156ZM168.059 168.54C168.347 168.54 168.619 168.503 168.875 168.428C169.142 168.353 169.371 168.247 169.563 168.108C169.755 167.959 169.904 167.783 170.011 167.58C170.128 167.367 170.187 167.127 170.187 166.86V163.788C170.187 163.564 170.128 163.356 170.011 163.164C169.904 162.961 169.755 162.791 169.563 162.652C169.371 162.513 169.142 162.407 168.875 162.332C168.619 162.247 168.347 162.204 168.059 162.204C167.334 162.204 166.763 162.433 166.347 162.892C165.931 163.34 165.723 163.932 165.723 164.668V166.076C165.723 166.812 165.931 167.409 166.347 167.868C166.763 168.316 167.334 168.54 168.059 168.54ZM177.292 169.692C176.727 169.692 176.215 169.591 175.756 169.388C175.308 169.185 174.919 168.897 174.588 168.524C174.268 168.14 174.017 167.687 173.836 167.164C173.665 166.631 173.58 166.033 173.58 165.372C173.58 164.721 173.665 164.129 173.836 163.596C174.017 163.063 174.268 162.609 174.588 162.236C174.919 161.852 175.308 161.559 175.756 161.356C176.215 161.153 176.727 161.052 177.292 161.052C177.847 161.052 178.343 161.153 178.78 161.356C179.217 161.559 179.591 161.841 179.9 162.204C180.209 162.556 180.444 162.977 180.604 163.468C180.775 163.959 180.86 164.497 180.86 165.084V165.692H174.924V166.076C174.924 166.428 174.977 166.759 175.084 167.068C175.201 167.367 175.361 167.628 175.564 167.852C175.777 168.076 176.033 168.252 176.332 168.38C176.641 168.508 176.988 168.572 177.372 168.572C177.895 168.572 178.348 168.449 178.732 168.204C179.127 167.959 179.431 167.607 179.644 167.148L180.556 167.804C180.289 168.369 179.873 168.828 179.308 169.18C178.743 169.521 178.071 169.692 177.292 169.692ZM177.292 162.124C176.94 162.124 176.62 162.188 176.332 162.316C176.044 162.433 175.793 162.604 175.58 162.828C175.377 163.052 175.217 163.319 175.1 163.628C174.983 163.927 174.924 164.257 174.924 164.62V164.732H179.484V164.556C179.484 163.82 179.281 163.233 178.876 162.796C178.481 162.348 177.953 162.124 177.292 162.124ZM182.969 169.5V161.244H184.249V162.588H184.313C184.516 162.119 184.799 161.745 185.161 161.468C185.535 161.191 186.031 161.052 186.649 161.052C187.503 161.052 188.175 161.329 188.665 161.884C189.167 162.428 189.417 163.201 189.417 164.204V169.5H188.137V164.428C188.137 162.945 187.513 162.204 186.265 162.204C186.009 162.204 185.759 162.236 185.513 162.3C185.279 162.364 185.065 162.46 184.873 162.588C184.681 162.716 184.527 162.881 184.409 163.084C184.303 163.276 184.249 163.505 184.249 163.772V169.5H182.969ZM193.887 169.5C193.439 169.5 193.098 169.377 192.863 169.132C192.639 168.876 192.527 168.545 192.527 168.14V162.364H191.167V161.244H191.935C192.212 161.244 192.399 161.191 192.495 161.084C192.602 160.967 192.655 160.769 192.655 160.492V158.956H193.807V161.244H195.615V162.364H193.807V168.38H195.487V169.5H193.887Z" fill="black"/>
<path opacity="0.4" d="M47.6831 206.158C47.3428 206.158 47.0522 205.876 47.0522 205.536V191.74C47.0522 190.984 47.4258 190.553 47.9985 190.295C48.6294 190.013 49.1191 189.872 50.4141 189.872C53.4937 189.872 55.4111 191.375 58.333 191.375C59.7607 191.375 60.5244 191.026 60.9312 191.026C61.4126 191.026 61.7944 191.283 61.7944 191.731V200.157C61.7944 200.92 61.4209 201.352 60.8481 201.609C60.2173 201.892 59.7358 202.033 58.4409 202.033C55.519 202.033 53.5933 200.53 50.522 200.53C49.3018 200.53 48.5215 200.829 48.314 200.92V205.536C48.314 205.884 48.0317 206.158 47.6831 206.158ZM58.4409 200.779C59.7358 200.779 60.4248 200.397 60.541 200.124V192.362C59.9849 192.52 59.2378 192.628 58.333 192.628C55.2866 192.628 53.3359 191.125 50.4141 191.125C49.1191 191.125 48.4302 191.507 48.314 191.781V199.576C48.7788 199.385 49.6089 199.277 50.522 199.277C53.7178 199.277 55.6768 200.779 58.4409 200.779Z" fill="black"/>
<path d="M75.488 203.5V192.332H82.144V193.516H76.832V197.26H81.68V198.444H76.832V203.5H75.488ZM85.6575 203.5C85.2095 203.5 84.8682 203.377 84.6335 203.132C84.4095 202.876 84.2975 202.556 84.2975 202.172V191.66H85.5775V202.38H86.7935V203.5H85.6575ZM94.6569 203.5C94.1769 203.5 93.8302 203.372 93.6169 203.116C93.4142 202.86 93.2862 202.54 93.2329 202.156H93.1529C92.9715 202.668 92.6729 203.052 92.2569 203.308C91.8409 203.564 91.3449 203.692 90.7689 203.692C89.8942 203.692 89.2115 203.468 88.7209 203.02C88.2409 202.572 88.0009 201.964 88.0009 201.196C88.0009 200.417 88.2835 199.82 88.8489 199.404C89.4249 198.988 90.3155 198.78 91.5209 198.78H93.1529V197.964C93.1529 197.377 92.9929 196.929 92.6729 196.62C92.3529 196.311 91.8622 196.156 91.2009 196.156C90.6995 196.156 90.2782 196.268 89.9369 196.492C89.6062 196.716 89.3289 197.015 89.1049 197.388L88.3369 196.668C88.5609 196.22 88.9182 195.841 89.4089 195.532C89.8995 195.212 90.5182 195.052 91.2649 195.052C92.2675 195.052 93.0462 195.297 93.6009 195.788C94.1555 196.279 94.4329 196.961 94.4329 197.836V202.38H95.3769V203.5H94.6569ZM90.9769 202.604C91.2969 202.604 91.5902 202.567 91.8569 202.492C92.1235 202.417 92.3529 202.311 92.5449 202.172C92.7369 202.033 92.8862 201.873 92.9929 201.692C93.0995 201.511 93.1529 201.313 93.1529 201.1V199.74H91.4569C90.7209 199.74 90.1822 199.847 89.8409 200.06C89.5102 200.273 89.3449 200.583 89.3449 200.988V201.324C89.3449 201.729 89.4889 202.044 89.7769 202.268C90.0755 202.492 90.4755 202.604 90.9769 202.604ZM104.164 204.412C104.164 205.265 103.828 205.889 103.156 206.284C102.494 206.689 101.497 206.892 100.164 206.892C98.8731 206.892 97.9451 206.716 97.3798 206.364C96.8144 206.012 96.5318 205.511 96.5318 204.86C96.5318 204.412 96.6491 204.06 96.8838 203.804C97.1184 203.559 97.4384 203.377 97.8438 203.26V203.084C97.3531 202.849 97.1078 202.465 97.1078 201.932C97.1078 201.516 97.2411 201.201 97.5078 200.988C97.7744 200.764 98.1158 200.599 98.5318 200.492V200.428C98.0411 200.193 97.6571 199.857 97.3798 199.42C97.1131 198.983 96.9798 198.476 96.9798 197.9C96.9798 197.484 97.0544 197.1 97.2038 196.748C97.3531 196.396 97.5611 196.097 97.8278 195.852C98.1051 195.596 98.4304 195.399 98.8038 195.26C99.1878 195.121 99.6144 195.052 100.084 195.052C100.67 195.052 101.193 195.159 101.652 195.372V195.228C101.652 194.908 101.726 194.647 101.876 194.444C102.025 194.231 102.27 194.124 102.612 194.124H103.844V195.244H102.276V195.772C102.574 196.028 102.804 196.337 102.964 196.7C103.134 197.052 103.22 197.452 103.22 197.9C103.22 198.316 103.145 198.7 102.996 199.052C102.846 199.404 102.633 199.708 102.356 199.964C102.089 200.209 101.764 200.401 101.38 200.54C100.996 200.679 100.569 200.748 100.1 200.748C99.8331 200.748 99.5664 200.721 99.2998 200.668C99.0224 200.743 98.7718 200.855 98.5478 201.004C98.3238 201.143 98.2118 201.34 98.2118 201.596C98.2118 201.841 98.3291 202.007 98.5638 202.092C98.7984 202.177 99.1024 202.22 99.4758 202.22H101.236C102.26 202.22 103.001 202.417 103.46 202.812C103.929 203.196 104.164 203.729 104.164 204.412ZM102.964 204.508C102.964 204.177 102.836 203.911 102.58 203.708C102.334 203.516 101.892 203.42 101.252 203.42H98.4998C97.9878 203.655 97.7318 204.028 97.7318 204.54C97.7318 204.903 97.8651 205.212 98.1318 205.468C98.4091 205.724 98.8731 205.852 99.5238 205.852H100.708C101.422 205.852 101.977 205.74 102.372 205.516C102.766 205.292 102.964 204.956 102.964 204.508ZM100.1 199.724C100.644 199.724 101.076 199.596 101.396 199.34C101.716 199.073 101.876 198.668 101.876 198.124V197.676C101.876 197.132 101.716 196.732 101.396 196.476C101.076 196.209 100.644 196.076 100.1 196.076C99.5558 196.076 99.1238 196.209 98.8038 196.476C98.4838 196.732 98.3238 197.132 98.3238 197.676V198.124C98.3238 198.668 98.4838 199.073 98.8038 199.34C99.1238 199.596 99.5558 199.724 100.1 199.724ZM115.438 203.5C114.958 203.5 114.611 203.372 114.398 203.116C114.195 202.86 114.067 202.54 114.014 202.156H113.934C113.753 202.668 113.454 203.052 113.038 203.308C112.622 203.564 112.126 203.692 111.55 203.692C110.675 203.692 109.993 203.468 109.502 203.02C109.022 202.572 108.782 201.964 108.782 201.196C108.782 200.417 109.065 199.82 109.63 199.404C110.206 198.988 111.097 198.78 112.302 198.78H113.934V197.964C113.934 197.377 113.774 196.929 113.454 196.62C113.134 196.311 112.643 196.156 111.982 196.156C111.481 196.156 111.059 196.268 110.718 196.492C110.387 196.716 110.11 197.015 109.886 197.388L109.118 196.668C109.342 196.22 109.699 195.841 110.19 195.532C110.681 195.212 111.299 195.052 112.046 195.052C113.049 195.052 113.827 195.297 114.382 195.788C114.937 196.279 115.214 196.961 115.214 197.836V202.38H116.158V203.5H115.438ZM111.758 202.604C112.078 202.604 112.371 202.567 112.638 202.492C112.905 202.417 113.134 202.311 113.326 202.172C113.518 202.033 113.667 201.873 113.774 201.692C113.881 201.511 113.934 201.313 113.934 201.1V199.74H112.238C111.502 199.74 110.963 199.847 110.622 200.06C110.291 200.273 110.126 200.583 110.126 200.988V201.324C110.126 201.729 110.27 202.044 110.558 202.268C110.857 202.492 111.257 202.604 111.758 202.604ZM120.465 203.692C119.697 203.692 119.052 203.548 118.529 203.26C118.017 202.961 117.574 202.567 117.201 202.076L118.113 201.34C118.433 201.745 118.79 202.06 119.185 202.284C119.58 202.497 120.038 202.604 120.561 202.604C121.105 202.604 121.526 202.487 121.825 202.252C122.134 202.017 122.289 201.687 122.289 201.26C122.289 200.94 122.182 200.668 121.969 200.444C121.766 200.209 121.393 200.049 120.849 199.964L120.193 199.868C119.809 199.815 119.457 199.735 119.137 199.628C118.817 199.511 118.534 199.361 118.289 199.18C118.054 198.988 117.868 198.753 117.729 198.476C117.601 198.199 117.537 197.868 117.537 197.484C117.537 197.079 117.612 196.727 117.761 196.428C117.91 196.119 118.113 195.863 118.369 195.66C118.636 195.457 118.95 195.308 119.313 195.212C119.676 195.105 120.065 195.052 120.481 195.052C121.153 195.052 121.713 195.169 122.161 195.404C122.62 195.639 123.02 195.964 123.361 196.38L122.513 197.148C122.332 196.892 122.065 196.663 121.713 196.46C121.361 196.247 120.918 196.14 120.385 196.14C119.852 196.14 119.446 196.257 119.169 196.492C118.902 196.716 118.769 197.025 118.769 197.42C118.769 197.825 118.902 198.119 119.169 198.3C119.446 198.481 119.841 198.615 120.353 198.7L120.993 198.796C121.91 198.935 122.561 199.201 122.945 199.596C123.329 199.98 123.521 200.487 123.521 201.116C123.521 201.916 123.249 202.545 122.705 203.004C122.161 203.463 121.414 203.692 120.465 203.692ZM130.203 193.308C129.926 193.308 129.723 193.244 129.595 193.116C129.478 192.977 129.419 192.801 129.419 192.588V192.38C129.419 192.167 129.478 191.996 129.595 191.868C129.723 191.729 129.926 191.66 130.203 191.66C130.48 191.66 130.678 191.729 130.795 191.868C130.923 191.996 130.987 192.167 130.987 192.38V192.588C130.987 192.801 130.923 192.977 130.795 193.116C130.678 193.244 130.48 193.308 130.203 193.308ZM129.563 195.244H130.843V203.5H129.563V195.244ZM133.563 203.5V195.244H134.843V196.588H134.907C135.11 196.119 135.392 195.745 135.755 195.468C136.128 195.191 136.624 195.052 137.243 195.052C138.096 195.052 138.768 195.329 139.259 195.884C139.76 196.428 140.011 197.201 140.011 198.204V203.5H138.731V198.428C138.731 196.945 138.107 196.204 136.859 196.204C136.603 196.204 136.352 196.236 136.107 196.3C135.872 196.364 135.659 196.46 135.467 196.588C135.275 196.716 135.12 196.881 135.003 197.084C134.896 197.276 134.843 197.505 134.843 197.772V203.5H133.563ZM148.657 203.5C148.177 203.5 147.83 203.372 147.617 203.116C147.414 202.86 147.286 202.54 147.233 202.156H147.153C146.972 202.668 146.673 203.052 146.257 203.308C145.841 203.564 145.345 203.692 144.769 203.692C143.894 203.692 143.212 203.468 142.721 203.02C142.241 202.572 142.001 201.964 142.001 201.196C142.001 200.417 142.284 199.82 142.849 199.404C143.425 198.988 144.316 198.78 145.521 198.78H147.153V197.964C147.153 197.377 146.993 196.929 146.673 196.62C146.353 196.311 145.862 196.156 145.201 196.156C144.7 196.156 144.278 196.268 143.937 196.492C143.606 196.716 143.329 197.015 143.105 197.388L142.337 196.668C142.561 196.22 142.918 195.841 143.409 195.532C143.9 195.212 144.518 195.052 145.265 195.052C146.268 195.052 147.046 195.297 147.601 195.788C148.156 196.279 148.433 196.961 148.433 197.836V202.38H149.377V203.5H148.657ZM144.977 202.604C145.297 202.604 145.59 202.567 145.857 202.492C146.124 202.417 146.353 202.311 146.545 202.172C146.737 202.033 146.886 201.873 146.993 201.692C147.1 201.511 147.153 201.313 147.153 201.1V199.74H145.457C144.721 199.74 144.182 199.847 143.841 200.06C143.51 200.273 143.345 200.583 143.345 200.988V201.324C143.345 201.729 143.489 202.044 143.777 202.268C144.076 202.492 144.476 202.604 144.977 202.604ZM151.204 195.244H152.484V196.588H152.548C152.761 196.065 153.07 195.681 153.476 195.436C153.892 195.18 154.388 195.052 154.964 195.052C155.476 195.052 155.94 195.153 156.356 195.356C156.772 195.559 157.124 195.847 157.412 196.22C157.71 196.593 157.934 197.047 158.084 197.58C158.244 198.113 158.324 198.711 158.324 199.372C158.324 200.033 158.244 200.631 158.084 201.164C157.934 201.697 157.71 202.151 157.412 202.524C157.124 202.897 156.772 203.185 156.356 203.388C155.94 203.591 155.476 203.692 154.964 203.692C153.844 203.692 153.038 203.18 152.548 202.156H152.484V206.7H151.204V195.244ZM154.612 202.54C155.337 202.54 155.908 202.316 156.324 201.868C156.74 201.409 156.948 200.812 156.948 200.076V198.668C156.948 197.932 156.74 197.34 156.324 196.892C155.908 196.433 155.337 196.204 154.612 196.204C154.324 196.204 154.046 196.247 153.78 196.332C153.524 196.407 153.3 196.513 153.108 196.652C152.916 196.791 152.761 196.961 152.644 197.164C152.537 197.356 152.484 197.564 152.484 197.788V200.86C152.484 201.127 152.537 201.367 152.644 201.58C152.761 201.783 152.916 201.959 153.108 202.108C153.3 202.247 153.524 202.353 153.78 202.428C154.046 202.503 154.324 202.54 154.612 202.54ZM160.485 195.244H161.765V196.588H161.829C162.042 196.065 162.352 195.681 162.757 195.436C163.173 195.18 163.669 195.052 164.245 195.052C164.757 195.052 165.221 195.153 165.637 195.356C166.053 195.559 166.405 195.847 166.693 196.22C166.992 196.593 167.216 197.047 167.365 197.58C167.525 198.113 167.605 198.711 167.605 199.372C167.605 200.033 167.525 200.631 167.365 201.164C167.216 201.697 166.992 202.151 166.693 202.524C166.405 202.897 166.053 203.185 165.637 203.388C165.221 203.591 164.757 203.692 164.245 203.692C163.125 203.692 162.32 203.18 161.829 202.156H161.765V206.7H160.485V195.244ZM163.893 202.54C164.618 202.54 165.189 202.316 165.605 201.868C166.021 201.409 166.229 200.812 166.229 200.076V198.668C166.229 197.932 166.021 197.34 165.605 196.892C165.189 196.433 164.618 196.204 163.893 196.204C163.605 196.204 163.328 196.247 163.061 196.332C162.805 196.407 162.581 196.513 162.389 196.652C162.197 196.791 162.042 196.961 161.925 197.164C161.818 197.356 161.765 197.564 161.765 197.788V200.86C161.765 201.127 161.818 201.367 161.925 201.58C162.042 201.783 162.197 201.959 162.389 202.108C162.581 202.247 162.805 202.353 163.061 202.428C163.328 202.503 163.605 202.54 163.893 202.54ZM169.766 203.5V195.244H171.046V196.764H171.126C171.276 196.369 171.542 196.017 171.926 195.708C172.31 195.399 172.838 195.244 173.51 195.244H174.006V196.524H173.254C172.561 196.524 172.017 196.657 171.622 196.924C171.238 197.18 171.046 197.505 171.046 197.9V203.5H169.766ZM178.683 203.692C178.128 203.692 177.622 203.591 177.163 203.388C176.704 203.185 176.31 202.897 175.979 202.524C175.659 202.14 175.408 201.687 175.227 201.164C175.046 200.631 174.955 200.033 174.955 199.372C174.955 198.721 175.046 198.129 175.227 197.596C175.408 197.063 175.659 196.609 175.979 196.236C176.31 195.852 176.704 195.559 177.163 195.356C177.622 195.153 178.128 195.052 178.683 195.052C179.238 195.052 179.739 195.153 180.187 195.356C180.646 195.559 181.04 195.852 181.371 196.236C181.702 196.609 181.958 197.063 182.139 197.596C182.32 198.129 182.411 198.721 182.411 199.372C182.411 200.033 182.32 200.631 182.139 201.164C181.958 201.687 181.702 202.14 181.371 202.524C181.04 202.897 180.646 203.185 180.187 203.388C179.739 203.591 179.238 203.692 178.683 203.692ZM178.683 202.556C179.376 202.556 179.942 202.343 180.379 201.916C180.816 201.489 181.035 200.839 181.035 199.964V198.78C181.035 197.905 180.816 197.255 180.379 196.828C179.942 196.401 179.376 196.188 178.683 196.188C177.99 196.188 177.424 196.401 176.987 196.828C176.55 197.255 176.331 197.905 176.331 198.78V199.964C176.331 200.839 176.55 201.489 176.987 201.916C177.424 202.343 177.99 202.556 178.683 202.556ZM184.516 195.244H185.796V196.588H185.86C186.074 196.065 186.383 195.681 186.788 195.436C187.204 195.18 187.7 195.052 188.276 195.052C188.788 195.052 189.252 195.153 189.668 195.356C190.084 195.559 190.436 195.847 190.724 196.22C191.023 196.593 191.247 197.047 191.396 197.58C191.556 198.113 191.636 198.711 191.636 199.372C191.636 200.033 191.556 200.631 191.396 201.164C191.247 201.697 191.023 202.151 190.724 202.524C190.436 202.897 190.084 203.185 189.668 203.388C189.252 203.591 188.788 203.692 188.276 203.692C187.156 203.692 186.351 203.18 185.86 202.156H185.796V206.7H184.516V195.244ZM187.924 202.54C188.65 202.54 189.22 202.316 189.636 201.868C190.052 201.409 190.26 200.812 190.26 200.076V198.668C190.26 197.932 190.052 197.34 189.636 196.892C189.22 196.433 188.65 196.204 187.924 196.204C187.636 196.204 187.359 196.247 187.092 196.332C186.836 196.407 186.612 196.513 186.42 196.652C186.228 196.791 186.074 196.961 185.956 197.164C185.85 197.356 185.796 197.564 185.796 197.788V200.86C185.796 201.127 185.85 201.367 185.956 201.58C186.074 201.783 186.228 201.959 186.42 202.108C186.612 202.247 186.836 202.353 187.092 202.428C187.359 202.503 187.636 202.54 187.924 202.54ZM193.798 203.5V195.244H195.078V196.764H195.158C195.307 196.369 195.574 196.017 195.958 195.708C196.342 195.399 196.87 195.244 197.542 195.244H198.038V196.524H197.286C196.592 196.524 196.048 196.657 195.654 196.924C195.27 197.18 195.078 197.505 195.078 197.9V203.5H193.798ZM200.312 193.308C200.035 193.308 199.833 193.244 199.705 193.116C199.587 192.977 199.529 192.801 199.529 192.588V192.38C199.529 192.167 199.587 191.996 199.705 191.868C199.833 191.729 200.035 191.66 200.312 191.66C200.59 191.66 200.787 191.729 200.905 191.868C201.033 191.996 201.097 192.167 201.097 192.38V192.588C201.097 192.801 201.033 192.977 200.905 193.116C200.787 193.244 200.59 193.308 200.312 193.308ZM199.673 195.244H200.953V203.5H199.673V195.244ZM209.673 203.5C209.193 203.5 208.846 203.372 208.633 203.116C208.43 202.86 208.302 202.54 208.249 202.156H208.169C207.987 202.668 207.689 203.052 207.273 203.308C206.857 203.564 206.361 203.692 205.785 203.692C204.91 203.692 204.227 203.468 203.737 203.02C203.257 202.572 203.017 201.964 203.017 201.196C203.017 200.417 203.299 199.82 203.865 199.404C204.441 198.988 205.331 198.78 206.536 198.78H208.169V197.964C208.169 197.377 208.009 196.929 207.689 196.62C207.369 196.311 206.878 196.156 206.217 196.156C205.715 196.156 205.294 196.268 204.953 196.492C204.622 196.716 204.345 197.015 204.121 197.388L203.353 196.668C203.577 196.22 203.934 195.841 204.424 195.532C204.915 195.212 205.534 195.052 206.281 195.052C207.283 195.052 208.062 195.297 208.617 195.788C209.171 196.279 209.449 196.961 209.449 197.836V202.38H210.392V203.5H209.673ZM205.993 202.604C206.313 202.604 206.606 202.567 206.873 202.492C207.139 202.417 207.369 202.311 207.561 202.172C207.753 202.033 207.902 201.873 208.009 201.692C208.115 201.511 208.169 201.313 208.169 201.1V199.74H206.473C205.737 199.74 205.198 199.847 204.857 200.06C204.526 200.273 204.361 200.583 204.361 200.988V201.324C204.361 201.729 204.505 202.044 204.793 202.268C205.091 202.492 205.491 202.604 205.993 202.604ZM214.043 203.5C213.595 203.5 213.254 203.377 213.019 203.132C212.795 202.876 212.683 202.545 212.683 202.14V196.364H211.323V195.244H212.091C212.369 195.244 212.555 195.191 212.651 195.084C212.758 194.967 212.811 194.769 212.811 194.492V192.956H213.963V195.244H215.771V196.364H213.963V202.38H215.643V203.5H214.043ZM220.87 203.692C220.305 203.692 219.793 203.591 219.334 203.388C218.886 203.185 218.497 202.897 218.166 202.524C217.846 202.14 217.596 201.687 217.414 201.164C217.244 200.631 217.158 200.033 217.158 199.372C217.158 198.721 217.244 198.129 217.414 197.596C217.596 197.063 217.846 196.609 218.166 196.236C218.497 195.852 218.886 195.559 219.334 195.356C219.793 195.153 220.305 195.052 220.87 195.052C221.425 195.052 221.921 195.153 222.358 195.356C222.796 195.559 223.169 195.841 223.478 196.204C223.788 196.556 224.022 196.977 224.182 197.468C224.353 197.959 224.438 198.497 224.438 199.084V199.692H218.502V200.076C218.502 200.428 218.556 200.759 218.662 201.068C218.78 201.367 218.94 201.628 219.142 201.852C219.356 202.076 219.612 202.252 219.91 202.38C220.22 202.508 220.566 202.572 220.95 202.572C221.473 202.572 221.926 202.449 222.31 202.204C222.705 201.959 223.009 201.607 223.222 201.148L224.134 201.804C223.868 202.369 223.452 202.828 222.886 203.18C222.321 203.521 221.649 203.692 220.87 203.692ZM220.87 196.124C220.518 196.124 220.198 196.188 219.91 196.316C219.622 196.433 219.372 196.604 219.158 196.828C218.956 197.052 218.796 197.319 218.678 197.628C218.561 197.927 218.502 198.257 218.502 198.62V198.732H223.062V198.556C223.062 197.82 222.86 197.233 222.454 196.796C222.06 196.348 221.532 196.124 220.87 196.124Z" fill="black"/>
<path opacity="0.4" d="M54 240.474C49.3765 240.474 45.5332 236.63 45.5332 232.007C45.5332 227.375 49.3682 223.54 53.9917 223.54C58.6235 223.54 62.4668 227.375 62.4668 232.007C62.4668 236.63 58.6318 240.474 54 240.474ZM53.9917 224.951C52.2568 224.951 50.6797 225.565 49.4595 226.595L59.4121 236.547C60.4414 235.319 61.0557 233.742 61.0557 232.007C61.0557 228.089 57.9097 224.951 53.9917 224.951ZM54 239.062C55.7266 239.062 57.3037 238.448 58.5322 237.427L48.5796 227.475C47.5586 228.703 46.9526 230.28 46.9526 232.007C46.9526 235.925 50.082 239.062 54 239.062Z" fill="black"/>
<path d="M76.832 237.5H75.488V226.332H79.936C80.9173 226.332 81.68 226.604 82.224 227.148C82.7787 227.692 83.056 228.476 83.056 229.5C83.056 230.321 82.864 230.999 82.48 231.532C82.1067 232.055 81.552 232.401 80.816 232.572L83.376 237.5H81.856L79.44 232.7H76.832V237.5ZM79.936 231.548C80.4693 231.548 80.88 231.409 81.168 231.132C81.4667 230.855 81.616 230.46 81.616 229.948V229.116C81.616 228.604 81.4667 228.209 81.168 227.932C80.88 227.655 80.4693 227.516 79.936 227.516H76.832V231.548H79.936ZM88.464 237.692C87.8987 237.692 87.3867 237.591 86.928 237.388C86.48 237.185 86.0907 236.897 85.76 236.524C85.44 236.14 85.1893 235.687 85.008 235.164C84.8373 234.631 84.752 234.033 84.752 233.372C84.752 232.721 84.8373 232.129 85.008 231.596C85.1893 231.063 85.44 230.609 85.76 230.236C86.0907 229.852 86.48 229.559 86.928 229.356C87.3867 229.153 87.8987 229.052 88.464 229.052C89.0187 229.052 89.5147 229.153 89.952 229.356C90.3893 229.559 90.7627 229.841 91.072 230.204C91.3813 230.556 91.616 230.977 91.776 231.468C91.9467 231.959 92.032 232.497 92.032 233.084V233.692H86.096V234.076C86.096 234.428 86.1493 234.759 86.256 235.068C86.3733 235.367 86.5333 235.628 86.736 235.852C86.9493 236.076 87.2053 236.252 87.504 236.38C87.8133 236.508 88.16 236.572 88.544 236.572C89.0667 236.572 89.52 236.449 89.904 236.204C90.2987 235.959 90.6027 235.607 90.816 235.148L91.728 235.804C91.4613 236.369 91.0453 236.828 90.48 237.18C89.9147 237.521 89.2427 237.692 88.464 237.692ZM88.464 230.124C88.112 230.124 87.792 230.188 87.504 230.316C87.216 230.433 86.9653 230.604 86.752 230.828C86.5493 231.052 86.3893 231.319 86.272 231.628C86.1547 231.927 86.096 232.257 86.096 232.62V232.732H90.656V232.556C90.656 231.82 90.4533 231.233 90.048 230.796C89.6533 230.348 89.1253 230.124 88.464 230.124ZM94.1413 237.5V229.244H95.4213V230.588H95.4853C95.5813 230.375 95.6879 230.177 95.8053 229.996C95.9333 229.804 96.0826 229.639 96.2533 229.5C96.4346 229.361 96.6426 229.255 96.8773 229.18C97.1119 229.095 97.3893 229.052 97.7093 229.052C98.2533 229.052 98.7546 229.185 99.2133 229.452C99.6719 229.708 100.013 230.135 100.237 230.732H100.269C100.419 230.284 100.696 229.895 101.101 229.564C101.517 229.223 102.077 229.052 102.781 229.052C103.624 229.052 104.28 229.329 104.749 229.884C105.229 230.428 105.469 231.201 105.469 232.204V237.5H104.189V232.428C104.189 231.692 104.045 231.137 103.757 230.764C103.469 230.391 103.011 230.204 102.381 230.204C102.125 230.204 101.88 230.236 101.645 230.3C101.421 230.364 101.219 230.46 101.037 230.588C100.856 230.716 100.712 230.881 100.605 231.084C100.499 231.276 100.445 231.505 100.445 231.772V237.5H99.1653V232.428C99.1653 231.692 99.0213 231.137 98.7333 230.764C98.4453 230.391 97.9973 230.204 97.3893 230.204C97.1333 230.204 96.8879 230.236 96.6533 230.3C96.4186 230.364 96.2106 230.46 96.0293 230.588C95.8479 230.716 95.6986 230.881 95.5813 231.084C95.4746 231.276 95.4213 231.505 95.4213 231.772V237.5H94.1413ZM111.23 237.692C110.675 237.692 110.169 237.591 109.71 237.388C109.251 237.185 108.857 236.897 108.526 236.524C108.206 236.14 107.955 235.687 107.774 235.164C107.593 234.631 107.502 234.033 107.502 233.372C107.502 232.721 107.593 232.129 107.774 231.596C107.955 231.063 108.206 230.609 108.526 230.236C108.857 229.852 109.251 229.559 109.71 229.356C110.169 229.153 110.675 229.052 111.23 229.052C111.785 229.052 112.286 229.153 112.734 229.356C113.193 229.559 113.587 229.852 113.918 230.236C114.249 230.609 114.505 231.063 114.686 231.596C114.867 232.129 114.958 232.721 114.958 233.372C114.958 234.033 114.867 234.631 114.686 235.164C114.505 235.687 114.249 236.14 113.918 236.524C113.587 236.897 113.193 237.185 112.734 237.388C112.286 237.591 111.785 237.692 111.23 237.692ZM111.23 236.556C111.923 236.556 112.489 236.343 112.926 235.916C113.363 235.489 113.582 234.839 113.582 233.964V232.78C113.582 231.905 113.363 231.255 112.926 230.828C112.489 230.401 111.923 230.188 111.23 230.188C110.537 230.188 109.971 230.401 109.534 230.828C109.097 231.255 108.878 231.905 108.878 232.78V233.964C108.878 234.839 109.097 235.489 109.534 235.916C109.971 236.343 110.537 236.556 111.23 236.556ZM118.762 237.5L115.866 229.244H117.146L118.586 233.34L119.482 236.156H119.562L120.458 233.34L121.93 229.244H123.162L120.25 237.5H118.762ZM127.792 237.692C127.227 237.692 126.715 237.591 126.256 237.388C125.808 237.185 125.419 236.897 125.088 236.524C124.768 236.14 124.517 235.687 124.336 235.164C124.165 234.631 124.08 234.033 124.08 233.372C124.08 232.721 124.165 232.129 124.336 231.596C124.517 231.063 124.768 230.609 125.088 230.236C125.419 229.852 125.808 229.559 126.256 229.356C126.715 229.153 127.227 229.052 127.792 229.052C128.347 229.052 128.843 229.153 129.28 229.356C129.717 229.559 130.091 229.841 130.4 230.204C130.709 230.556 130.944 230.977 131.104 231.468C131.275 231.959 131.36 232.497 131.36 233.084V233.692H125.424V234.076C125.424 234.428 125.477 234.759 125.584 235.068C125.701 235.367 125.861 235.628 126.064 235.852C126.277 236.076 126.533 236.252 126.832 236.38C127.141 236.508 127.488 236.572 127.872 236.572C128.395 236.572 128.848 236.449 129.232 236.204C129.627 235.959 129.931 235.607 130.144 235.148L131.056 235.804C130.789 236.369 130.373 236.828 129.808 237.18C129.243 237.521 128.571 237.692 127.792 237.692ZM127.792 230.124C127.44 230.124 127.12 230.188 126.832 230.316C126.544 230.433 126.293 230.604 126.08 230.828C125.877 231.052 125.717 231.319 125.6 231.628C125.483 231.927 125.424 232.257 125.424 232.62V232.732H129.984V232.556C129.984 231.82 129.781 231.233 129.376 230.796C128.981 230.348 128.453 230.124 127.792 230.124ZM137.699 230.364H136.355V229.244H137.699V227.58C137.699 227.004 137.848 226.54 138.147 226.188C138.445 225.836 138.899 225.66 139.507 225.66H140.755V226.78H138.979V229.244H140.755V230.364H138.979V237.5H137.699V230.364ZM142.438 237.5V229.244H143.718V230.764H143.798C143.947 230.369 144.214 230.017 144.598 229.708C144.982 229.399 145.51 229.244 146.182 229.244H146.678V230.524H145.926C145.233 230.524 144.689 230.657 144.294 230.924C143.91 231.18 143.718 231.505 143.718 231.9V237.5H142.438ZM151.355 237.692C150.8 237.692 150.294 237.591 149.835 237.388C149.376 237.185 148.982 236.897 148.651 236.524C148.331 236.14 148.08 235.687 147.899 235.164C147.718 234.631 147.627 234.033 147.627 233.372C147.627 232.721 147.718 232.129 147.899 231.596C148.08 231.063 148.331 230.609 148.651 230.236C148.982 229.852 149.376 229.559 149.835 229.356C150.294 229.153 150.8 229.052 151.355 229.052C151.91 229.052 152.411 229.153 152.859 229.356C153.318 229.559 153.712 229.852 154.043 230.236C154.374 230.609 154.63 231.063 154.811 231.596C154.992 232.129 155.083 232.721 155.083 233.372C155.083 234.033 154.992 234.631 154.811 235.164C154.63 235.687 154.374 236.14 154.043 236.524C153.712 236.897 153.318 237.185 152.859 237.388C152.411 237.591 151.91 237.692 151.355 237.692ZM151.355 236.556C152.048 236.556 152.614 236.343 153.051 235.916C153.488 235.489 153.707 234.839 153.707 233.964V232.78C153.707 231.905 153.488 231.255 153.051 230.828C152.614 230.401 152.048 230.188 151.355 230.188C150.662 230.188 150.096 230.401 149.659 230.828C149.222 231.255 149.003 231.905 149.003 232.78V233.964C149.003 234.839 149.222 235.489 149.659 235.916C150.096 236.343 150.662 236.556 151.355 236.556ZM157.188 237.5V229.244H158.468V230.588H158.532C158.628 230.375 158.735 230.177 158.852 229.996C158.98 229.804 159.129 229.639 159.3 229.5C159.481 229.361 159.689 229.255 159.924 229.18C160.159 229.095 160.436 229.052 160.756 229.052C161.3 229.052 161.801 229.185 162.26 229.452C162.719 229.708 163.06 230.135 163.284 230.732H163.316C163.465 230.284 163.743 229.895 164.148 229.564C164.564 229.223 165.124 229.052 165.828 229.052C166.671 229.052 167.327 229.329 167.796 229.884C168.276 230.428 168.516 231.201 168.516 232.204V237.5H167.236V232.428C167.236 231.692 167.092 231.137 166.804 230.764C166.516 230.391 166.057 230.204 165.428 230.204C165.172 230.204 164.927 230.236 164.692 230.3C164.468 230.364 164.265 230.46 164.084 230.588C163.903 230.716 163.759 230.881 163.652 231.084C163.545 231.276 163.492 231.505 163.492 231.772V237.5H162.212V232.428C162.212 231.692 162.068 231.137 161.78 230.764C161.492 230.391 161.044 230.204 160.436 230.204C160.18 230.204 159.935 230.236 159.7 230.3C159.465 230.364 159.257 230.46 159.076 230.588C158.895 230.716 158.745 230.881 158.628 231.084C158.521 231.276 158.468 231.505 158.468 231.772V237.5H157.188ZM178.01 237.692C177.434 237.692 176.917 237.591 176.458 237.388C175.999 237.185 175.61 236.897 175.29 236.524C174.981 236.151 174.741 235.697 174.57 235.164C174.41 234.631 174.33 234.033 174.33 233.372C174.33 232.711 174.41 232.113 174.57 231.58C174.741 231.047 174.981 230.593 175.29 230.22C175.61 229.847 175.999 229.559 176.458 229.356C176.917 229.153 177.434 229.052 178.01 229.052C178.831 229.052 179.487 229.233 179.978 229.596C180.479 229.948 180.853 230.412 181.098 230.988L180.026 231.532C179.877 231.105 179.631 230.775 179.29 230.54C178.949 230.305 178.522 230.188 178.01 230.188C177.626 230.188 177.29 230.252 177.002 230.38C176.714 230.497 176.474 230.668 176.282 230.892C176.09 231.105 175.946 231.367 175.85 231.676C175.754 231.975 175.706 232.305 175.706 232.668V234.076C175.706 234.801 175.898 235.399 176.282 235.868C176.677 236.327 177.253 236.556 178.01 236.556C179.045 236.556 179.791 236.076 180.25 235.116L181.178 235.74C180.911 236.337 180.511 236.812 179.978 237.164C179.455 237.516 178.799 237.692 178.01 237.692ZM182.985 225.66H184.265V230.588H184.329C184.532 230.119 184.814 229.745 185.177 229.468C185.55 229.191 186.046 229.052 186.665 229.052C187.518 229.052 188.19 229.329 188.681 229.884C189.182 230.428 189.433 231.201 189.433 232.204V237.5H188.153V232.428C188.153 230.945 187.529 230.204 186.281 230.204C186.025 230.204 185.774 230.236 185.529 230.3C185.294 230.364 185.081 230.46 184.889 230.588C184.697 230.716 184.542 230.881 184.425 231.084C184.318 231.276 184.265 231.505 184.265 231.772V237.5H182.985V225.66ZM198.079 237.5C197.599 237.5 197.252 237.372 197.039 237.116C196.836 236.86 196.708 236.54 196.655 236.156H196.575C196.393 236.668 196.095 237.052 195.679 237.308C195.263 237.564 194.767 237.692 194.191 237.692C193.316 237.692 192.633 237.468 192.143 237.02C191.663 236.572 191.423 235.964 191.423 235.196C191.423 234.417 191.705 233.82 192.271 233.404C192.847 232.988 193.737 232.78 194.943 232.78H196.575V231.964C196.575 231.377 196.415 230.929 196.095 230.62C195.775 230.311 195.284 230.156 194.623 230.156C194.121 230.156 193.7 230.268 193.359 230.492C193.028 230.716 192.751 231.015 192.527 231.388L191.759 230.668C191.983 230.22 192.34 229.841 192.831 229.532C193.321 229.212 193.94 229.052 194.687 229.052C195.689 229.052 196.468 229.297 197.023 229.788C197.577 230.279 197.855 230.961 197.855 231.836V236.38H198.799V237.5H198.079ZM194.399 236.604C194.719 236.604 195.012 236.567 195.279 236.492C195.545 236.417 195.775 236.311 195.967 236.172C196.159 236.033 196.308 235.873 196.415 235.692C196.521 235.511 196.575 235.313 196.575 235.1V233.74H194.879C194.143 233.74 193.604 233.847 193.263 234.06C192.932 234.273 192.767 234.583 192.767 234.988V235.324C192.767 235.729 192.911 236.044 193.199 236.268C193.497 236.492 193.897 236.604 194.399 236.604ZM202.45 237.5C202.002 237.5 201.66 237.377 201.426 237.132C201.202 236.876 201.09 236.545 201.09 236.14V230.364H199.73V229.244H200.498C200.775 229.244 200.962 229.191 201.058 229.084C201.164 228.967 201.218 228.769 201.218 228.492V226.956H202.37V229.244H204.178V230.364H202.37V236.38H204.05V237.5H202.45Z" fill="black"/>
</g>
<rect x="29.5" y="279.5" width="87" height="31" rx="15.5" stroke="black" stroke-opacity="0.16"/>
<path opacity="0.4" d="M47.7798 302.619C47.373 302.619 47.041 302.453 46.6426 302.079L40.0933 295.895C39.7778 295.596 39.6699 295.281 39.6699 295.007C39.6699 294.725 39.7695 294.417 40.0933 294.11L46.6426 287.984C47.0825 287.569 47.3564 287.395 47.7632 287.395C48.3442 287.395 48.751 287.852 48.751 288.408V291.545H48.9917C54.9683 291.545 57.5664 295.372 57.5664 301.506C57.5664 302.22 57.1514 302.619 56.7114 302.619C56.3628 302.619 55.981 302.536 55.6904 302.004C54.2378 299.29 52.2124 298.477 48.9917 298.477H48.751V301.647C48.751 302.204 48.3442 302.619 47.7798 302.619ZM47.3066 300.834C47.373 300.834 47.4146 300.784 47.4146 300.709V297.497C47.4146 297.306 47.5059 297.223 47.6968 297.223H48.8091C52.752 297.223 55.2671 298.593 56.2466 300.676C56.2715 300.734 56.2881 300.759 56.3213 300.759C56.3628 300.759 56.3877 300.734 56.3877 300.668C56.2217 296.75 54.5034 292.799 48.8091 292.799H47.6968C47.5059 292.799 47.4146 292.716 47.4146 292.525V289.229C47.4146 289.163 47.373 289.113 47.2983 289.113C47.2485 289.113 47.1987 289.146 47.1572 289.18L41.2471 294.849C41.1807 294.907 41.1558 294.957 41.1558 295.007C41.1558 295.057 41.1807 295.098 41.2471 295.165L47.1655 300.759C47.207 300.809 47.2568 300.834 47.3066 300.834Z" fill="black"/>
<path opacity="0.6" d="M69.184 300.5H67.376V289.332H72.192C73.1947 289.332 73.984 289.636 74.56 290.244C75.136 290.841 75.424 291.657 75.424 292.692C75.424 293.492 75.2373 294.159 74.864 294.692C74.5013 295.215 73.9627 295.583 73.248 295.796L75.664 300.5H73.648L71.408 295.988H69.184V300.5ZM72.064 294.468C72.5227 294.468 72.88 294.351 73.136 294.116C73.392 293.871 73.52 293.524 73.52 293.076V292.308C73.52 291.86 73.392 291.519 73.136 291.284C72.88 291.039 72.5227 290.916 72.064 290.916H69.184V294.468H72.064ZM80.762 300.692C80.1647 300.692 79.6313 300.591 79.162 300.388C78.6927 300.185 78.2927 299.897 77.962 299.524C77.6313 299.14 77.3753 298.681 77.194 298.148C77.0233 297.604 76.938 297.001 76.938 296.34C76.938 295.679 77.0233 295.081 77.194 294.548C77.3753 294.004 77.6313 293.545 77.962 293.172C78.2927 292.788 78.6927 292.495 79.162 292.292C79.6313 292.089 80.1647 291.988 80.762 291.988C81.37 291.988 81.9033 292.095 82.362 292.308C82.8313 292.521 83.2207 292.82 83.53 293.204C83.8393 293.577 84.0687 294.015 84.218 294.516C84.378 295.017 84.458 295.556 84.458 296.132V296.788H78.746V297.06C78.746 297.7 78.9327 298.228 79.306 298.644C79.69 299.049 80.234 299.252 80.938 299.252C81.45 299.252 81.882 299.14 82.234 298.916C82.586 298.692 82.8847 298.388 83.13 298.004L84.154 299.012C83.8447 299.524 83.3967 299.935 82.81 300.244C82.2233 300.543 81.5407 300.692 80.762 300.692ZM80.762 293.348C80.4633 293.348 80.186 293.401 79.93 293.508C79.6847 293.615 79.4713 293.764 79.29 293.956C79.1193 294.148 78.986 294.377 78.89 294.644C78.794 294.911 78.746 295.204 78.746 295.524V295.636H82.618V295.476C82.618 294.836 82.4527 294.324 82.122 293.94C81.7913 293.545 81.338 293.348 80.762 293.348ZM86.3886 292.18H88.1326V293.556H88.2126C88.394 293.055 88.6873 292.671 89.0926 292.404C89.5086 292.127 89.994 291.988 90.5486 291.988C91.6046 291.988 92.4206 292.372 92.9966 293.14C93.5726 293.897 93.8606 294.964 93.8606 296.34C93.8606 297.716 93.5726 298.788 92.9966 299.556C92.4206 300.313 91.6046 300.692 90.5486 300.692C89.994 300.692 89.5086 300.553 89.0926 300.276C88.6873 299.999 88.394 299.615 88.2126 299.124H88.1326V303.7H86.3886V292.18ZM90.0206 299.188C90.6286 299.188 91.114 298.996 91.4766 298.612C91.8393 298.217 92.0206 297.7 92.0206 297.06V295.62C92.0206 294.98 91.8393 294.468 91.4766 294.084C91.114 293.689 90.6286 293.492 90.0206 293.492C89.4873 293.492 89.0393 293.625 88.6766 293.892C88.314 294.148 88.1326 294.489 88.1326 294.916V297.764C88.1326 298.191 88.314 298.537 88.6766 298.804C89.0393 299.06 89.4873 299.188 90.0206 299.188ZM97.6334 300.5C97.036 300.5 96.588 300.351 96.2894 300.052C96.0014 299.743 95.8574 299.316 95.8574 298.772V288.66H97.6014V299.076H98.7534V300.5H97.6334ZM105.399 292.18H107.079L103.575 302.148C103.479 302.425 103.367 302.66 103.239 302.852C103.122 303.055 102.978 303.215 102.807 303.332C102.647 303.46 102.45 303.551 102.215 303.604C101.98 303.668 101.703 303.7 101.383 303.7H100.375V302.276H101.783L102.263 300.868L99.2389 292.18H100.983L102.647 297.076L103.127 298.884H103.207L103.735 297.076L105.399 292.18Z" fill="black"/>
<g filter="url(#filter1_d_36_846)">
<rect x="127" y="279" width="162" height="32" rx="16" fill="white"/>
<rect x="127.5" y="279.5" width="161" height="31" rx="15.5" stroke="black" stroke-opacity="0.4"/>
<path opacity="0.9" d="M140.683 303.158C140.343 303.158 140.052 302.876 140.052 302.536V288.74C140.052 287.984 140.426 287.553 140.999 287.295C141.629 287.013 142.119 286.872 143.414 286.872C146.494 286.872 148.411 288.375 151.333 288.375C152.761 288.375 153.524 288.026 153.931 288.026C154.413 288.026 154.794 288.283 154.794 288.731V297.157C154.794 297.92 154.421 298.352 153.848 298.609C153.217 298.892 152.736 299.033 151.441 299.033C148.519 299.033 146.593 297.53 143.522 297.53C142.302 297.53 141.521 297.829 141.314 297.92V302.536C141.314 302.884 141.032 303.158 140.683 303.158Z" fill="#FC2222"/>
<path d="M167.184 300.5H165.376V289.332H170.192C171.195 289.332 171.984 289.636 172.56 290.244C173.136 290.841 173.424 291.657 173.424 292.692C173.424 293.492 173.237 294.159 172.864 294.692C172.501 295.215 171.963 295.583 171.248 295.796L173.664 300.5H171.648L169.408 295.988H167.184V300.5ZM170.064 294.468C170.523 294.468 170.88 294.351 171.136 294.116C171.392 293.871 171.52 293.524 171.52 293.076V292.308C171.52 291.86 171.392 291.519 171.136 291.284C170.88 291.039 170.523 290.916 170.064 290.916H167.184V294.468H170.064ZM178.762 300.692C178.165 300.692 177.631 300.591 177.162 300.388C176.693 300.185 176.293 299.897 175.962 299.524C175.631 299.14 175.375 298.681 175.194 298.148C175.023 297.604 174.938 297.001 174.938 296.34C174.938 295.679 175.023 295.081 175.194 294.548C175.375 294.004 175.631 293.545 175.962 293.172C176.293 292.788 176.693 292.495 177.162 292.292C177.631 292.089 178.165 291.988 178.762 291.988C179.37 291.988 179.903 292.095 180.362 292.308C180.831 292.521 181.221 292.82 181.53 293.204C181.839 293.577 182.069 294.015 182.218 294.516C182.378 295.017 182.458 295.556 182.458 296.132V296.788H176.746V297.06C176.746 297.7 176.933 298.228 177.306 298.644C177.69 299.049 178.234 299.252 178.938 299.252C179.45 299.252 179.882 299.14 180.234 298.916C180.586 298.692 180.885 298.388 181.13 298.004L182.154 299.012C181.845 299.524 181.397 299.935 180.81 300.244C180.223 300.543 179.541 300.692 178.762 300.692ZM178.762 293.348C178.463 293.348 178.186 293.401 177.93 293.508C177.685 293.615 177.471 293.764 177.29 293.956C177.119 294.148 176.986 294.377 176.89 294.644C176.794 294.911 176.746 295.204 176.746 295.524V295.636H180.618V295.476C180.618 294.836 180.453 294.324 180.122 293.94C179.791 293.545 179.338 293.348 178.762 293.348ZM184.389 292.18H186.133V293.556H186.213C186.394 293.055 186.687 292.671 187.093 292.404C187.509 292.127 187.994 291.988 188.549 291.988C189.605 291.988 190.421 292.372 190.997 293.14C191.573 293.897 191.861 294.964 191.861 296.34C191.861 297.716 191.573 298.788 190.997 299.556C190.421 300.313 189.605 300.692 188.549 300.692C187.994 300.692 187.509 300.553 187.093 300.276C186.687 299.999 186.394 299.615 186.213 299.124H186.133V303.7H184.389V292.18ZM188.021 299.188C188.629 299.188 189.114 298.996 189.477 298.612C189.839 298.217 190.021 297.7 190.021 297.06V295.62C190.021 294.98 189.839 294.468 189.477 294.084C189.114 293.689 188.629 293.492 188.021 293.492C187.487 293.492 187.039 293.625 186.677 293.892C186.314 294.148 186.133 294.489 186.133 294.916V297.764C186.133 298.191 186.314 298.537 186.677 298.804C187.039 299.06 187.487 299.188 188.021 299.188ZM197.121 300.692C196.545 300.692 196.017 300.591 195.537 300.388C195.068 300.185 194.668 299.897 194.337 299.524C194.007 299.14 193.751 298.681 193.569 298.148C193.388 297.604 193.297 297.001 193.297 296.34C193.297 295.679 193.388 295.081 193.569 294.548C193.751 294.004 194.007 293.545 194.337 293.172C194.668 292.788 195.068 292.495 195.537 292.292C196.017 292.089 196.545 291.988 197.121 291.988C197.697 291.988 198.22 292.089 198.689 292.292C199.169 292.495 199.575 292.788 199.905 293.172C200.236 293.545 200.492 294.004 200.673 294.548C200.855 295.081 200.945 295.679 200.945 296.34C200.945 297.001 200.855 297.604 200.673 298.148C200.492 298.681 200.236 299.14 199.905 299.524C199.575 299.897 199.169 300.185 198.689 300.388C198.22 300.591 197.697 300.692 197.121 300.692ZM197.121 299.252C197.719 299.252 198.199 299.071 198.561 298.708C198.924 298.335 199.105 297.78 199.105 297.044V295.636C199.105 294.9 198.924 294.351 198.561 293.988C198.199 293.615 197.719 293.428 197.121 293.428C196.524 293.428 196.044 293.615 195.681 293.988C195.319 294.351 195.137 294.9 195.137 295.636V297.044C195.137 297.78 195.319 298.335 195.681 298.708C196.044 299.071 196.524 299.252 197.121 299.252ZM202.889 300.5V292.18H204.633V293.78H204.713C204.83 293.353 205.075 292.98 205.449 292.66C205.822 292.34 206.339 292.18 207.001 292.18H207.465V293.86H206.777C206.083 293.86 205.55 293.972 205.177 294.196C204.814 294.42 204.633 294.751 204.633 295.188V300.5H202.889ZM211.38 300.5C210.772 300.5 210.313 300.345 210.004 300.036C209.695 299.716 209.54 299.268 209.54 298.692V293.604H208.244V292.18H208.948C209.236 292.18 209.433 292.116 209.54 291.988C209.657 291.86 209.716 291.652 209.716 291.364V289.908H211.284V292.18H213.028V293.604H211.284V299.076H212.9V300.5H211.38ZM218.349 300.5V299.028H219.869V290.804H218.349V289.332H223.213V290.804H221.677V299.028H223.213V300.5H218.349ZM225.357 300.5V292.18H227.101V293.556H227.181C227.363 293.108 227.635 292.735 227.997 292.436C228.371 292.137 228.877 291.988 229.517 291.988C230.371 291.988 231.032 292.271 231.501 292.836C231.981 293.391 232.221 294.185 232.221 295.22V300.5H230.477V295.444C230.477 294.143 229.955 293.492 228.909 293.492C228.685 293.492 228.461 293.524 228.237 293.588C228.024 293.641 227.832 293.727 227.661 293.844C227.491 293.961 227.352 294.111 227.245 294.292C227.149 294.473 227.101 294.687 227.101 294.932V300.5H225.357ZM237.855 300.692C237.257 300.692 236.724 300.591 236.255 300.388C235.785 300.185 235.391 299.897 235.071 299.524C234.751 299.14 234.505 298.681 234.335 298.148C234.164 297.604 234.079 297.001 234.079 296.34C234.079 295.679 234.164 295.081 234.335 294.548C234.505 294.004 234.751 293.545 235.071 293.172C235.391 292.788 235.785 292.495 236.255 292.292C236.724 292.089 237.257 291.988 237.855 291.988C238.687 291.988 239.369 292.175 239.903 292.548C240.436 292.921 240.825 293.417 241.071 294.036L239.631 294.708C239.513 294.324 239.305 294.02 239.007 293.796C238.719 293.561 238.335 293.444 237.855 293.444C237.215 293.444 236.729 293.647 236.399 294.052C236.079 294.447 235.919 294.964 235.919 295.604V297.092C235.919 297.732 236.079 298.255 236.399 298.66C236.729 299.055 237.215 299.252 237.855 299.252C238.367 299.252 238.772 299.129 239.071 298.884C239.38 298.628 239.625 298.292 239.807 297.876L241.135 298.58C240.857 299.263 240.441 299.785 239.887 300.148C239.332 300.511 238.655 300.692 237.855 300.692ZM243.675 290.692C243.312 290.692 243.046 290.607 242.875 290.436C242.715 290.265 242.635 290.047 242.635 289.78V289.508C242.635 289.241 242.715 289.023 242.875 288.852C243.046 288.681 243.312 288.596 243.675 288.596C244.038 288.596 244.299 288.681 244.459 288.852C244.619 289.023 244.699 289.241 244.699 289.508V289.78C244.699 290.047 244.619 290.265 244.459 290.436C244.299 290.607 244.038 290.692 243.675 290.692ZM242.795 292.18H244.539V300.5H242.795V292.18ZM252.261 299.124H252.181C252 299.615 251.701 299.999 251.285 300.276C250.88 300.553 250.4 300.692 249.845 300.692C248.789 300.692 247.973 300.313 247.397 299.556C246.821 298.788 246.533 297.716 246.533 296.34C246.533 294.964 246.821 293.897 247.397 293.14C247.973 292.372 248.789 291.988 249.845 291.988C250.4 291.988 250.88 292.127 251.285 292.404C251.701 292.671 252 293.055 252.181 293.556H252.261V288.66H254.005V300.5H252.261V299.124ZM250.373 299.188C250.907 299.188 251.355 299.06 251.717 298.804C252.08 298.537 252.261 298.191 252.261 297.764V294.916C252.261 294.489 252.08 294.148 251.717 293.892C251.355 293.625 250.907 293.492 250.373 293.492C249.765 293.492 249.28 293.689 248.917 294.084C248.555 294.468 248.373 294.98 248.373 295.62V297.06C248.373 297.7 248.555 298.217 248.917 298.612C249.28 298.996 249.765 299.188 250.373 299.188ZM259.762 300.692C259.165 300.692 258.631 300.591 258.162 300.388C257.693 300.185 257.293 299.897 256.962 299.524C256.631 299.14 256.375 298.681 256.194 298.148C256.023 297.604 255.938 297.001 255.938 296.34C255.938 295.679 256.023 295.081 256.194 294.548C256.375 294.004 256.631 293.545 256.962 293.172C257.293 292.788 257.693 292.495 258.162 292.292C258.631 292.089 259.165 291.988 259.762 291.988C260.37 291.988 260.903 292.095 261.362 292.308C261.831 292.521 262.221 292.82 262.53 293.204C262.839 293.577 263.069 294.015 263.218 294.516C263.378 295.017 263.458 295.556 263.458 296.132V296.788H257.746V297.06C257.746 297.7 257.933 298.228 258.306 298.644C258.69 299.049 259.234 299.252 259.938 299.252C260.45 299.252 260.882 299.14 261.234 298.916C261.586 298.692 261.885 298.388 262.13 298.004L263.154 299.012C262.845 299.524 262.397 299.935 261.81 300.244C261.223 300.543 260.541 300.692 259.762 300.692ZM259.762 293.348C259.463 293.348 259.186 293.401 258.93 293.508C258.685 293.615 258.471 293.764 258.29 293.956C258.119 294.148 257.986 294.377 257.89 294.644C257.794 294.911 257.746 295.204 257.746 295.524V295.636H261.618V295.476C261.618 294.836 261.453 294.324 261.122 293.94C260.791 293.545 260.338 293.348 259.762 293.348ZM265.389 300.5V292.18H267.133V293.556H267.213C267.394 293.108 267.666 292.735 268.029 292.436C268.402 292.137 268.909 291.988 269.549 291.988C270.402 291.988 271.063 292.271 271.533 292.836C272.013 293.391 272.253 294.185 272.253 295.22V300.5H270.509V295.444C270.509 294.143 269.986 293.492 268.941 293.492C268.717 293.492 268.493 293.524 268.269 293.588C268.055 293.641 267.863 293.727 267.693 293.844C267.522 293.961 267.383 294.111 267.277 294.292C267.181 294.473 267.133 294.687 267.133 294.932V300.5H265.389ZM276.974 300.5C276.366 300.5 275.907 300.345 275.598 300.036C275.289 299.716 275.134 299.268 275.134 298.692V293.604H273.838V292.18H274.542C274.83 292.18 275.027 292.116 275.134 291.988C275.251 291.86 275.31 291.652 275.31 291.364V289.908H276.878V292.18H278.622V293.604H276.878V299.076H278.494V300.5H276.974Z" fill="black"/>
</g>
<g filter="url(#filter2_d_36_846)">
<path d="M214.27 318.28C213.99 317.92 213.64 317.19 213.03 316.28C212.68 315.78 211.82 314.83 211.56 314.34C211.373 314.042 211.318 313.68 211.41 313.34C211.567 312.694 212.18 312.266 212.84 312.34C213.351 312.443 213.82 312.693 214.19 313.06C214.448 313.303 214.686 313.567 214.9 313.85C215.06 314.05 215.1 314.13 215.28 314.36C215.46 314.59 215.58 314.82 215.49 314.48C215.42 313.98 215.3 313.14 215.13 312.39C215 311.82 214.97 311.73 214.85 311.3C214.73 310.87 214.66 310.51 214.53 310.02C214.411 309.538 214.318 309.051 214.25 308.56C214.124 307.932 214.216 307.279 214.51 306.71C214.86 306.381 215.372 306.295 215.81 306.49C216.251 306.815 216.579 307.27 216.75 307.79C217.012 308.43 217.187 309.103 217.27 309.79C217.43 310.79 217.74 312.25 217.75 312.55C217.75 312.18 217.68 311.4 217.75 311.05C217.819 310.685 218.073 310.382 218.42 310.25C218.718 310.159 219.033 310.138 219.34 310.19C219.65 310.255 219.925 310.433 220.11 310.69C220.342 311.273 220.47 311.893 220.49 312.52C220.517 311.971 220.611 311.426 220.77 310.9C220.937 310.664 221.181 310.495 221.46 310.42C221.791 310.359 222.13 310.359 222.46 310.42C222.731 310.511 222.968 310.681 223.14 310.91C223.352 311.44 223.48 312 223.52 312.57C223.52 312.71 223.59 312.18 223.81 311.83C223.924 311.491 224.211 311.238 224.562 311.167C224.913 311.097 225.275 311.218 225.512 311.487C225.749 311.756 225.824 312.131 225.71 312.47C225.71 313.12 225.71 313.09 225.71 313.53C225.71 313.97 225.71 314.36 225.71 314.73C225.674 315.315 225.593 315.897 225.47 316.47C225.296 316.977 225.054 317.458 224.75 317.9C224.265 318.44 223.863 319.05 223.56 319.71C223.485 320.038 223.451 320.374 223.46 320.71C223.459 321.021 223.499 321.33 223.58 321.63C223.171 321.673 222.759 321.673 222.35 321.63C221.96 321.57 221.48 320.79 221.35 320.55C221.286 320.421 221.154 320.34 221.01 320.34C220.866 320.34 220.734 320.421 220.67 320.55C220.45 320.93 219.96 321.62 219.62 321.66C218.95 321.74 217.57 321.66 216.48 321.66C216.48 321.66 216.66 320.66 216.25 320.3C215.84 319.94 215.42 319.52 215.11 319.24L214.27 318.28Z" fill="white"/>
<path fill-rule="evenodd" clip-rule="evenodd" d="M214.27 318.28C213.99 317.92 213.64 317.19 213.03 316.28C212.68 315.78 211.82 314.83 211.56 314.34C211.373 314.042 211.318 313.68 211.41 313.34C211.567 312.694 212.18 312.266 212.84 312.34C213.351 312.443 213.82 312.693 214.19 313.06C214.448 313.303 214.686 313.567 214.9 313.85C215.06 314.05 215.1 314.13 215.28 314.36C215.46 314.59 215.58 314.82 215.49 314.48C215.42 313.98 215.3 313.14 215.13 312.39C215 311.82 214.97 311.73 214.85 311.3C214.73 310.87 214.66 310.51 214.53 310.02C214.411 309.538 214.318 309.051 214.25 308.56C214.124 307.932 214.216 307.279 214.51 306.71C214.86 306.381 215.372 306.295 215.81 306.49C216.251 306.815 216.579 307.27 216.75 307.79C217.012 308.43 217.187 309.103 217.27 309.79C217.43 310.79 217.74 312.25 217.75 312.55C217.75 312.18 217.68 311.4 217.75 311.05C217.819 310.685 218.073 310.382 218.42 310.25C218.718 310.159 219.033 310.138 219.34 310.19C219.65 310.255 219.925 310.433 220.11 310.69C220.342 311.273 220.47 311.893 220.49 312.52C220.517 311.971 220.611 311.426 220.77 310.9C220.937 310.664 221.181 310.495 221.46 310.42C221.791 310.359 222.13 310.359 222.46 310.42C222.731 310.511 222.968 310.681 223.14 310.91C223.352 311.44 223.48 312 223.52 312.57C223.52 312.71 223.59 312.18 223.81 311.83C223.924 311.491 224.211 311.238 224.562 311.167C224.913 311.097 225.275 311.218 225.512 311.487C225.749 311.756 225.824 312.131 225.71 312.47C225.71 313.12 225.71 313.09 225.71 313.53C225.71 313.97 225.71 314.36 225.71 314.73C225.674 315.315 225.593 315.897 225.47 316.47C225.296 316.977 225.054 317.458 224.75 317.9C224.265 318.44 223.863 319.05 223.56 319.71C223.485 320.038 223.451 320.374 223.46 320.71C223.459 321.021 223.499 321.33 223.58 321.63C223.171 321.673 222.759 321.673 222.35 321.63C221.96 321.57 221.48 320.79 221.35 320.55C221.286 320.421 221.154 320.34 221.01 320.34C220.866 320.34 220.734 320.421 220.67 320.55C220.45 320.93 219.96 321.62 219.62 321.66C218.95 321.74 217.57 321.66 216.48 321.66C216.48 321.66 216.66 320.66 216.25 320.3C215.84 319.94 215.42 319.52 215.11 319.24L214.27 318.28Z" stroke="black" stroke-width="0.75" stroke-linecap="round" stroke-linejoin="round"/>
<path d="M222.75 318.826V315.374C222.75 315.167 222.582 315 222.375 315C222.168 315 222 315.167 222 315.374V318.826C222 319.033 222.168 319.2 222.375 319.2C222.582 319.2 222.75 319.033 222.75 318.826Z" fill="black"/>
<path d="M220.77 318.825L220.75 315.371C220.749 315.165 220.58 314.999 220.373 315C220.166 315.001 219.999 315.169 220 315.375L220.02 318.829C220.021 319.035 220.19 319.201 220.397 319.2C220.604 319.199 220.771 319.031 220.77 318.825Z" fill="black"/>
<path d="M218 315.379L218.02 318.825C218.021 319.033 218.19 319.201 218.397 319.2C218.604 319.199 218.771 319.029 218.77 318.821L218.75 315.375C218.749 315.167 218.58 314.999 218.373 315C218.166 315.001 217.999 315.171 218 315.379Z" fill="black"/>
</g>
<defs>
<filter id="filter0_ddd_36_846" x="0" y="0" width="350" height="293" filterUnits="userSpaceOnUse" color-interpolation-filters="sRGB">
<feFlood flood-opacity="0" result="BackgroundImageFix"/>
<feColorMatrix in="SourceAlpha" type="matrix" values="0 0 0 0 0 0 0 0 0 0 0 0 0 0 0 0 0 0 127 0" result="hardAlpha"/>
<feOffset dy="0.598509"/>
<feGaussianBlur stdDeviation="0.897764"/>
<feColorMatrix type="matrix" values="0 0 0 0 0 0 0 0 0 0 0 0 0 0 0 0 0 0 0.0161557 0"/>
<feBlend mode="normal" in2="BackgroundImageFix" result="effect1_dropShadow_36_846"/>
<feColorMatrix in="SourceAlpha" type="matrix" values="0 0 0 0 0 0 0 0 0 0 0 0 0 0 0 0 0 0 127 0" result="hardAlpha"/>
<feOffset dy="2.01027"/>
<feGaussianBlur stdDeviation="3.0154"/>
<feColorMatrix type="matrix" values="0 0 0 0 0 0 0 0 0 0 0 0 0 0 0 0 0 0 0.0238443 0"/>
<feBlend mode="normal" in2="effect1_dropShadow_36_846" result="effect2_dropShadow_36_846"/>
<feColorMatrix in="SourceAlpha" type="matrix" values="0 0 0 0 0 0 0 0 0 0 0 0 0 0 0 0 0 0 127 0" result="hardAlpha"/>
<feOffset dy="9"/>
<feGaussianBlur stdDeviation="13.5"/>
<feColorMatrix type="matrix" values="0 0 0 0 0 0 0 0 0 0 0 0 0 0 0 0 0 0 0.04 0"/>
<feBlend mode="normal" in2="effect2_dropShadow_36_846" result="effect3_dropShadow_36_846"/>
<feBlend mode="normal" in="SourceGraphic" in2="effect3_dropShadow_36_846" result="shape"/>
</filter>
<filter id="filter1_d_36_846" x="123" y="275" width="170" height="40" filterUnits="userSpaceOnUse" color-interpolation-filters="sRGB">
<feFlood flood-opacity="0" result="BackgroundImageFix"/>
<feColorMatrix in="SourceAlpha" type="matrix" values="0 0 0 0 0 0 0 0 0 0 0 0 0 0 0 0 0 0 127 0" result="hardAlpha"/>
<feMorphology radius="4" operator="dilate" in="SourceAlpha" result="effect1_dropShadow_36_846"/>
<feOffset/>
<feComposite in2="hardAlpha" operator="out"/>
<feColorMatrix type="matrix" values="0 0 0 0 0.133333 0 0 0 0 0.462745 0 0 0 0 0.988235 0 0 0 0.26 0"/>
<feBlend mode="normal" in2="BackgroundImageFix" result="effect1_dropShadow_36_846"/>
<feBlend mode="normal" in="SourceGraphic" in2="effect1_dropShadow_36_846" result="shape"/>
</filter>
<filter id="filter2_d_36_846" x="210.191" y="306.012" width="16.7462" height="17.8586" filterUnits="userSpaceOnUse" color-interpolation-filters="sRGB">
<feFlood flood-opacity="0" result="BackgroundImageFix"/>
<feColorMatrix in="SourceAlpha" type="matrix" values="0 0 0 0 0 0 0 0 0 0 0 0 0 0 0 0 0 0 127 0" result="hardAlpha"/>
<feOffset dy="1"/>
<feGaussianBlur stdDeviation="0.4"/>
<feColorMatrix type="matrix" values="0 0 0 0 0 0 0 0 0 0 0 0 0 0 0 0 0 0 0.5 0"/>
<feBlend mode="normal" in2="BackgroundImageFix" result="effect1_dropShadow_36_846"/>
<feBlend mode="normal" in="SourceGraphic" in2="effect1_dropShadow_36_846" result="shape"/>
</filter>
</defs>
</svg>
