<svg width="194" height="194" viewBox="0 0 194 194" fill="none" xmlns="http://www.w3.org/2000/svg">
<path d="M97 4.5C120.849 4.49999 143.777 13.7115 160.997 30.2117C178.217 46.7119 188.398 69.2255 189.416 93.053C190.433 116.88 182.209 140.18 166.458 158.088C150.708 175.997 128.649 187.13 104.887 189.163C81.1246 191.197 57.4951 183.974 38.931 169.002C20.3669 154.03 8.3029 132.466 5.25732 108.812C2.21175 85.1585 8.41997 61.2423 22.5861 42.0562C36.7521 22.8702 57.7812 9.89706 81.2836 5.84493" stroke="url(#paint0_linear_36_844)" stroke-width="9" stroke-linecap="round"/>
<path d="M128.606 93.0718C122.962 93.0718 118.542 88.5838 118.542 83.0078C118.542 77.4318 123.03 72.9438 128.606 72.9438C134.182 72.9438 138.67 77.4318 138.67 83.0078C138.67 88.6518 134.182 93.0718 128.606 93.0718ZM145.334 91.9158H141.458V91.3038L150.026 73.6238H154.446L145.334 91.9158ZM128.606 89.2638C132.074 89.2638 134.862 86.5438 134.862 83.0078C134.862 79.5398 132.074 76.7518 128.606 76.7518C125.07 76.7518 122.35 79.5398 122.35 83.0078C122.35 86.4758 125.07 89.2638 128.606 89.2638ZM144.246 120.68C138.602 120.68 134.182 116.124 134.182 110.548C134.182 104.972 138.67 100.552 144.246 100.552C149.822 100.552 154.31 104.972 154.31 110.548C154.31 116.192 149.822 120.68 144.246 120.68ZM122.758 120H118.338L127.45 101.708H131.258V102.32L122.758 120ZM144.246 116.872C147.782 116.872 150.502 114.084 150.502 110.548C150.502 107.08 147.782 104.36 144.246 104.36C140.778 104.36 137.99 107.08 137.99 110.548C137.99 114.084 140.71 116.872 144.246 116.872Z" fill="black"/>
<path d="M128.606 93.0718C122.962 93.0718 118.542 88.5838 118.542 83.0078C118.542 77.4318 123.03 72.9438 128.606 72.9438C134.182 72.9438 138.67 77.4318 138.67 83.0078C138.67 88.6518 134.182 93.0718 128.606 93.0718ZM145.334 91.9158H141.458V91.3038L150.026 73.6238H154.446L145.334 91.9158ZM128.606 89.2638C132.074 89.2638 134.862 86.5438 134.862 83.0078C134.862 79.5398 132.074 76.7518 128.606 76.7518C125.07 76.7518 122.35 79.5398 122.35 83.0078C122.35 86.4758 125.07 89.2638 128.606 89.2638ZM144.246 120.68C138.602 120.68 134.182 116.124 134.182 110.548C134.182 104.972 138.67 100.552 144.246 100.552C149.822 100.552 154.31 104.972 154.31 110.548C154.31 116.192 149.822 120.68 144.246 120.68ZM122.758 120H118.338L127.45 101.708H131.258V102.32L122.758 120ZM144.246 116.872C147.782 116.872 150.502 114.084 150.502 110.548C150.502 107.08 147.782 104.36 144.246 104.36C140.778 104.36 137.99 107.08 137.99 110.548C137.99 114.084 140.71 116.872 144.246 116.872Z" fill="url(#paint1_linear_36_844)"/>
<path d="M97.013 120.68C87.017 120.68 80.897 116.328 80.897 107.964V107.352C80.897 102.116 84.433 97.7638 90.485 96.4038V95.7238C85.453 94.1598 82.733 90.4878 82.733 85.6599V84.9118C82.733 77.4998 88.173 72.9438 97.013 72.9438C105.853 72.9438 111.361 77.4998 111.361 84.9118V85.6599C111.361 90.4878 108.641 94.1598 103.609 95.7238V96.4038C109.593 97.7638 113.129 102.184 113.129 107.352V107.964C113.129 116.328 107.077 120.68 97.013 120.68ZM97.081 94.4318C103.473 93.5478 106.397 90.5558 106.397 85.9318V85.3198C106.397 79.8798 103.065 77.4998 97.013 77.4998C91.029 77.4998 87.697 79.8798 87.697 85.3198V85.9318C87.697 90.5558 90.621 93.5478 97.081 94.4318ZM97.013 116.124C104.153 116.124 108.097 113.948 108.097 108.032V107.556C108.097 103.136 105.241 98.9878 97.081 98.2398C88.853 98.9878 85.997 103.136 85.997 107.556V108.032C85.997 113.948 89.941 116.124 97.013 116.124Z" fill="black"/>
<path d="M97.013 120.68C87.017 120.68 80.897 116.328 80.897 107.964V107.352C80.897 102.116 84.433 97.7638 90.485 96.4038V95.7238C85.453 94.1598 82.733 90.4878 82.733 85.6599V84.9118C82.733 77.4998 88.173 72.9438 97.013 72.9438C105.853 72.9438 111.361 77.4998 111.361 84.9118V85.6599C111.361 90.4878 108.641 94.1598 103.609 95.7238V96.4038C109.593 97.7638 113.129 102.184 113.129 107.352V107.964C113.129 116.328 107.077 120.68 97.013 120.68ZM97.081 94.4318C103.473 93.5478 106.397 90.5558 106.397 85.9318V85.3198C106.397 79.8798 103.065 77.4998 97.013 77.4998C91.029 77.4998 87.697 79.8798 87.697 85.3198V85.9318C87.697 90.5558 90.621 93.5478 97.081 94.4318ZM97.013 116.124C104.153 116.124 108.097 113.948 108.097 108.032V107.556C108.097 103.136 105.241 98.9878 97.081 98.2398C88.853 98.9878 85.997 103.136 85.997 107.556V108.032C85.997 113.948 89.941 116.124 97.013 116.124Z" fill="url(#paint2_linear_36_844)"/>
<path d="M57.8035 72.9438C67.2555 72.9438 72.8316 78.0438 72.8316 89.3318V104.088C72.8316 115.852 67.0515 120.68 57.5995 120.68C48.5555 120.68 43.1835 116.056 43.1835 105.856H48.2155C48.2155 113.336 50.9355 116.056 57.5995 116.056C64.7395 116.056 67.7995 113.132 67.7995 104.088V95.0438H67.1875C65.8275 99.1238 62.0875 101.844 55.8995 101.844C48.2155 101.844 42.4355 97.5598 42.4355 87.5638C42.4355 77.8398 48.2835 72.9438 57.8035 72.9438ZM57.8035 77.5678C50.5955 77.5678 47.3995 80.4918 47.3995 87.3598C47.3995 94.0918 50.8675 97.2198 56.9195 97.2198C64.0595 97.2198 67.7995 93.9558 67.7995 87.9718C67.7995 81.2398 64.9435 77.5678 57.8035 77.5678Z" fill="black"/>
<path d="M57.8035 72.9438C67.2555 72.9438 72.8316 78.0438 72.8316 89.3318V104.088C72.8316 115.852 67.0515 120.68 57.5995 120.68C48.5555 120.68 43.1835 116.056 43.1835 105.856H48.2155C48.2155 113.336 50.9355 116.056 57.5995 116.056C64.7395 116.056 67.7995 113.132 67.7995 104.088V95.0438H67.1875C65.8275 99.1238 62.0875 101.844 55.8995 101.844C48.2155 101.844 42.4355 97.5598 42.4355 87.5638C42.4355 77.8398 48.2835 72.9438 57.8035 72.9438ZM57.8035 77.5678C50.5955 77.5678 47.3995 80.4918 47.3995 87.3598C47.3995 94.0918 50.8675 97.2198 56.9195 97.2198C64.0595 97.2198 67.7995 93.9558 67.7995 87.9718C67.7995 81.2398 64.9435 77.5678 57.8035 77.5678Z" fill="url(#paint3_linear_36_844)"/>
<defs>
<linearGradient id="paint0_linear_36_844" x1="97" y1="38.5" x2="44" y2="21" gradientUnits="userSpaceOnUse">
<stop stop-color="#20DD10"/>
<stop offset="1" stop-color="#31DE95"/>
</linearGradient>
<linearGradient id="paint1_linear_36_844" x1="147.281" y1="96.8118" x2="152.584" y2="84.6636" gradientUnits="userSpaceOnUse">
<stop stop-color="#20DD10"/>
<stop offset="1" stop-color="#31DE95"/>
</linearGradient>
<linearGradient id="paint2_linear_36_844" x1="106.732" y1="96.8118" x2="112.44" y2="85.1399" gradientUnits="userSpaceOnUse">
<stop stop-color="#20DD10"/>
<stop offset="1" stop-color="#31DE95"/>
</linearGradient>
<linearGradient id="paint3_linear_36_844" x1="66.7994" y1="96.8118" x2="72.7099" y2="85.4137" gradientUnits="userSpaceOnUse">
<stop stop-color="#20DD10"/>
<stop offset="1" stop-color="#31DE95"/>
</linearGradient>
</defs>
</svg>
